<?xml version="1.0" encoding="UTF-8" standalone="no"?>
<!DOCTYPE svg PUBLIC "-//W3C//DTD SVG 1.1//EN"
 "http://www.w3.org/Graphics/SVG/1.1/DTD/svg11.dtd">
<!-- Generated by graphviz version 2.40.1 (20161225.0304)
 -->
<!-- Title: %3 Pages: 1 -->
<svg width="1312pt" height="286pt"
 viewBox="0.00 0.00 1311.81 286.36" xmlns="http://www.w3.org/2000/svg" xmlns:xlink="http://www.w3.org/1999/xlink">
<g id="graph0" class="graph" transform="scale(1 1) rotate(0) translate(4 282.3554)">
<title>%3</title>
<polygon fill="#ffffff" stroke="transparent" points="-4,4 -4,-282.3554 1307.8141,-282.3554 1307.8141,4 -4,4"/>
<!-- host -->
<g id="node1" class="node">
<title>host</title>
<ellipse fill="none" stroke="#000000" cx="38.8909" cy="-161.4854" rx="38.7821" ry="26.7407"/>
<text text-anchor="middle" x="38.8909" y="-165.2854" font-family="Times,serif" font-size="14.00" fill="#000000">host:</text>
<text text-anchor="middle" x="38.8909" y="-150.2854" font-family="Times,serif" font-size="14.00" fill="#000000">Python</text>
</g>
<!-- metaL -->
<g id="node2" class="node">
<title>metaL</title>
<ellipse fill="none" stroke="#000000" cx="229.5787" cy="-124.4854" rx="33.5952" ry="18"/>
<text text-anchor="middle" x="229.5787" y="-120.7854" font-family="Times,serif" font-size="14.00" fill="#000000">metaL</text>
</g>
<!-- host&#45;&gt;metaL -->
<g id="edge1" class="edge">
<title>host&#45;&gt;metaL</title>
<path fill="none" stroke="#000000" d="M77.2528,-166.7268C105.675,-169.2357 144.9962,-169.7825 177.7817,-159.4854 187.0586,-156.5717 196.1863,-151.4106 204.1331,-145.932"/>
<polygon fill="#000000" stroke="#000000" points="206.2708,-148.7044 212.2438,-139.9538 202.1175,-143.0696 206.2708,-148.7044"/>
<text text-anchor="middle" x="136.7817" y="-171.2854" font-family="Times,serif" font-size="14.00" fill="#000000">реализация</text>
</g>
<!-- metaL&#45;&gt;host -->
<g id="edge4" class="edge">
<title>metaL&#45;&gt;host</title>
<path fill="none" stroke="#000000" d="M195.9277,-126.3178C168.6355,-128.3258 129.3291,-132.4067 95.7817,-140.4854 91.3436,-141.5541 86.7769,-142.8633 82.2523,-144.3007"/>
<polygon fill="#000000" stroke="#000000" points="80.8306,-141.0869 72.4812,-147.609 83.0755,-147.7171 80.8306,-141.0869"/>
<text text-anchor="middle" x="136.7817" y="-144.2854" font-family="Times,serif" font-size="14.00" fill="#000000">bootstrap</text>
</g>
<!-- metaL&#45;&gt;metaL -->
<g id="edge8" class="edge">
<title>metaL&#45;&gt;metaL</title>
<path fill="none" stroke="#000000" d="M213.6932,-140.4014C209.5492,-150.6358 214.8444,-160.4854 229.5787,-160.4854 239.2482,-160.4854 244.8525,-156.2435 246.3917,-150.4347"/>
<polygon fill="#000000" stroke="#000000" points="249.8699,-150.0368 245.4642,-140.4014 242.8996,-150.6811 249.8699,-150.0368"/>
<text text-anchor="middle" x="229.5787" y="-179.2854" font-family="Times,serif" font-size="14.00" fill="#000000">трансформация</text>
<text text-anchor="middle" x="229.5787" y="-164.2854" font-family="Times,serif" font-size="14.00" fill="#000000">моделей</text>
</g>
<!-- target -->
<g id="node3" class="node">
<title>target</title>
<ellipse fill="none" stroke="#000000" cx="623.6047" cy="-251.4854" rx="132.4583" ry="26.7407"/>
<text text-anchor="middle" x="623.6047" y="-255.2854" font-family="Times,serif" font-size="14.00" fill="#000000">target: C/C++</text>
<text text-anchor="middle" x="623.6047" y="-240.2854" font-family="Times,serif" font-size="14.00" fill="#000000">(embedded/standalone/bigdata)</text>
</g>
<!-- metaL&#45;&gt;target -->
<g id="edge2" class="edge">
<title>metaL&#45;&gt;target</title>
<path fill="none" stroke="#000000" d="M246.0565,-140.524C255.6634,-149.0655 268.4137,-159.0975 281.3757,-165.4854 351.5591,-200.0727 436.8949,-221.5543 504.7953,-234.3982"/>
<polygon fill="#000000" stroke="#000000" points="504.2126,-237.8498 514.683,-236.2311 505.4885,-230.967 504.2126,-237.8498"/>
<text text-anchor="middle" x="377.3757" y="-231.2854" font-family="Times,serif" font-size="14.00" fill="#000000">компиляция моделей</text>
</g>
<!-- PHP -->
<g id="node4" class="node">
<title>PHP</title>
<ellipse fill="none" stroke="#000000" cx="623.6047" cy="-179.4854" rx="92.7622" ry="26.7407"/>
<text text-anchor="middle" x="623.6047" y="-183.2854" font-family="Times,serif" font-size="14.00" fill="#000000">target: PHP5</text>
<text text-anchor="middle" x="623.6047" y="-168.2854" font-family="Times,serif" font-size="14.00" fill="#000000">(обновление legacy)</text>
</g>
<!-- metaL&#45;&gt;PHP -->
<g id="edge3" class="edge">
<title>metaL&#45;&gt;PHP</title>
<path fill="none" stroke="#000000" d="M259.2616,-133.2987C266.4532,-135.2142 274.1514,-137.0839 281.3757,-138.4854 362.2565,-154.1751 455.1287,-164.8476 523.699,-171.3613"/>
<polygon fill="#000000" stroke="#000000" points="523.7793,-174.8841 534.062,-172.3317 524.4319,-167.9146 523.7793,-174.8841"/>
</g>
<!-- Django -->
<g id="node5" class="node">
<title>Django</title>
<ellipse fill="none" stroke="#000000" cx="1018.528" cy="-52.4854" rx="63.8893" ry="18"/>
<text text-anchor="middle" x="1018.528" y="-48.7854" font-family="Times,serif" font-size="14.00" fill="#000000">Python/Django</text>
</g>
<!-- metaL&#45;&gt;Django -->
<g id="edge5" class="edge">
<title>metaL&#45;&gt;Django</title>
<path fill="none" stroke="#000000" d="M258.9435,-115.4956C266.2144,-113.5623 274.028,-111.7288 281.3757,-110.4854 373.6351,-94.8722 398.0219,-101.8581 491.3757,-95.4854 689.3155,-81.9731 739.7982,-89.7174 936.8337,-66.4854 942.6929,-65.7945 948.7708,-64.9659 954.8471,-64.0612"/>
<polygon fill="#000000" stroke="#000000" points="955.6888,-67.4725 965.0325,-62.4781 954.6136,-60.5556 955.6888,-67.4725"/>
<text text-anchor="middle" x="623.6047" y="-99.2854" font-family="Times,serif" font-size="14.00" fill="#000000">модели конфигурация REST</text>
</g>
<!-- JS -->
<g id="node6" class="node">
<title>JS</title>
<ellipse fill="none" stroke="#000000" cx="1257.0182" cy="-73.4854" rx="46.5926" ry="18"/>
<text text-anchor="middle" x="1257.0182" y="-69.7854" font-family="Times,serif" font-size="14.00" fill="#000000">JS/HTML</text>
</g>
<!-- metaL&#45;&gt;JS -->
<g id="edge6" class="edge">
<title>metaL&#45;&gt;JS</title>
<path fill="none" stroke="#000000" d="M263.1872,-126.8943C387.5922,-135.0843 833.2809,-157.9606 1192.2224,-94.4854 1199.4275,-93.2112 1206.935,-91.3262 1214.1777,-89.2"/>
<polygon fill="#000000" stroke="#000000" points="1215.3333,-92.5059 1223.8368,-86.186 1213.2482,-85.8237 1215.3333,-92.5059"/>
<text text-anchor="middle" x="855.3337" y="-154.2854" font-family="Times,serif" font-size="14.00" fill="#000000">шаблоны графика стили</text>
<text text-anchor="middle" x="855.3337" y="-139.2854" font-family="Times,serif" font-size="14.00" fill="#000000">фронт&#45;логика сериализация</text>
</g>
<!-- PostgreSQL -->
<g id="node7" class="node">
<title>PostgreSQL</title>
<ellipse fill="none" stroke="#000000" cx="623.6047" cy="-27.4854" rx="53.8905" ry="18"/>
<text text-anchor="middle" x="623.6047" y="-23.7854" font-family="Times,serif" font-size="14.00" fill="#000000">PostgreSQL</text>
</g>
<!-- metaL&#45;&gt;PostgreSQL -->
<g id="edge7" class="edge">
<title>metaL&#45;&gt;PostgreSQL</title>
<path fill="none" stroke="#000000" d="M234.5862,-106.3878C241.396,-85.6343 255.7664,-52.542 281.3757,-37.4854 371.6045,15.5633 499.6272,.3642 570.76,-14.2935"/>
<polygon fill="#000000" stroke="#000000" points="570.3204,-17.7785 580.8309,-16.444 571.7823,-10.9328 570.3204,-17.7785"/>
<text text-anchor="middle" x="377.3757" y="-56.2854" font-family="Times,serif" font-size="14.00" fill="#000000">триггеры, контроль ограничений</text>
<text text-anchor="middle" x="377.3757" y="-41.2854" font-family="Times,serif" font-size="14.00" fill="#000000">PL/pgSQL</text>
</g>
<!-- hPHP -->
<g id="node8" class="node">
<title>hPHP</title>
<ellipse fill="none" stroke="#000000" cx="38.8909" cy="-87.4854" rx="30.3115" ry="26.7407"/>
<text text-anchor="middle" x="38.8909" y="-91.2854" font-family="Times,serif" font-size="14.00" fill="#000000">host:</text>
<text text-anchor="middle" x="38.8909" y="-76.2854" font-family="Times,serif" font-size="14.00" fill="#000000">PHP</text>
</g>
<!-- metaL&#45;&gt;hPHP -->
<g id="edge10" class="edge">
<title>metaL&#45;&gt;hPHP</title>
<path fill="none" stroke="#000000" d="M217.1545,-107.71C207.7543,-96.5192 193.7614,-82.7511 177.7817,-76.4854 145.6919,-63.9027 106.2919,-68.7364 77.663,-75.4959"/>
<polygon fill="#000000" stroke="#000000" points="76.4658,-72.1888 67.6363,-78.0447 78.1904,-78.9731 76.4658,-72.1888"/>
<text text-anchor="middle" x="136.7817" y="-80.2854" font-family="Times,serif" font-size="14.00" fill="#000000">портирование</text>
</g>
<!-- Django&#45;&gt;JS -->
<g id="edge13" class="edge">
<title>Django&#45;&gt;JS</title>
<path fill="none" stroke="#000000" d="M1076.2417,-66.684C1084.2546,-68.2205 1092.4141,-69.5597 1100.2224,-70.4854 1133.1148,-74.3848 1170.1547,-75.2555 1199.972,-75.0956"/>
<polygon fill="#000000" stroke="#000000" points="1076.704,-63.2066 1066.2078,-64.6487 1075.3124,-70.0669 1076.704,-63.2066"/>
<polygon fill="#000000" stroke="#000000" points="1200.2324,-78.5934 1210.1989,-74.9993 1200.1664,-71.5937 1200.2324,-78.5934"/>
<text text-anchor="middle" x="1146.2224" y="-79.2854" font-family="Times,serif" font-size="14.00" fill="#000000">GET/POST</text>
</g>
<!-- Django&#45;&gt;JS -->
<g id="edge15" class="edge">
<title>Django&#45;&gt;JS</title>
<path fill="none" stroke="#000000" d="M1079.6146,-47.1228C1113.0859,-45.4377 1155.1801,-45.3684 1192.2224,-51.4854 1199.8018,-52.737 1207.6864,-54.76 1215.2385,-57.0848"/>
<polygon fill="#000000" stroke="#000000" points="1214.3281,-60.4699 1224.9211,-60.2754 1216.5189,-53.8215 1214.3281,-60.4699"/>
<text text-anchor="middle" x="1146.2224" y="-55.2854" font-family="Times,serif" font-size="14.00" fill="#000000">медиастриминг</text>
</g>
<!-- Django&#45;&gt;PostgreSQL -->
<g id="edge11" class="edge">
<title>Django&#45;&gt;PostgreSQL</title>
<path fill="none" stroke="#000000" d="M956.0415,-48.5298C882.4641,-43.872 760.9355,-36.1789 686.9762,-31.497"/>
<polygon fill="#000000" stroke="#000000" points="687.067,-27.9958 676.8658,-30.857 686.6247,-34.9818 687.067,-27.9958"/>
<text text-anchor="middle" x="855.3337" y="-51.2854" font-family="Times,serif" font-size="14.00" fill="#000000">ORM</text>
</g>
<!-- JS&#45;&gt;Django -->
<g id="edge14" class="edge">
<title>JS&#45;&gt;Django</title>
<path fill="none" stroke="#000000" d="M1236.1478,-48.5458C1224.5839,-36.7019 1209.1394,-23.7827 1192.2224,-17.4854 1153.9024,-3.2208 1140.2767,-9.2665 1100.2224,-17.4854 1085.627,-20.4802 1070.419,-26.1955 1057.1371,-32.1528"/>
<polygon fill="#000000" stroke="#000000" points="1233.7912,-51.1515 1243.163,-56.0933 1238.9185,-46.3858 1233.7912,-51.1515"/>
<polygon fill="#000000" stroke="#000000" points="1055.4193,-29.0923 1047.8426,-36.498 1058.3838,-35.4336 1055.4193,-29.0923"/>
<text text-anchor="middle" x="1146.2224" y="-21.2854" font-family="Times,serif" font-size="14.00" fill="#000000">WebSockets</text>
</g>
<!-- PostgreSQL&#45;&gt;Django -->
<g id="edge12" class="edge">
<title>PostgreSQL&#45;&gt;Django</title>
<path fill="none" stroke="#000000" d="M671.9274,-19.4459C733.9423,-10.6391 844.5413,-.0466 936.8337,-18.4854 951.138,-21.3432 966.0702,-26.7585 979.1965,-32.4411"/>
<polygon fill="#000000" stroke="#000000" points="977.8459,-35.6714 988.4006,-36.5933 980.7245,-29.2906 977.8459,-35.6714"/>
<text text-anchor="middle" x="855.3337" y="-22.2854" font-family="Times,serif" font-size="14.00" fill="#000000">триггеры</text>
</g>
<!-- hPHP&#45;&gt;metaL -->
<g id="edge9" class="edge">
<title>hPHP&#45;&gt;metaL</title>
<path fill="none" stroke="#000000" d="M69.1695,-91.1733C97.4444,-94.8784 140.7293,-101.2197 177.7817,-109.4854 181.945,-110.4141 186.267,-111.4874 190.5595,-112.6244"/>
<polygon fill="#000000" stroke="#000000" points="189.8617,-116.0627 200.4328,-115.3548 191.7275,-109.3159 189.8617,-116.0627"/>
<text text-anchor="middle" x="136.7817" y="-113.2854" font-family="Times,serif" font-size="14.00" fill="#000000">реализация</text>
</g>
</g>
</svg>
