<?xml version="1.0" encoding="UTF-8" standalone="no"?>
<!DOCTYPE svg PUBLIC "-//W3C//DTD SVG 1.1//EN"
 "http://www.w3.org/Graphics/SVG/1.1/DTD/svg11.dtd">
<!-- Generated by graphviz version 2.40.1 (20161225.0304)
 -->
<!-- Title: %3 Pages: 1 -->
<svg width="1145pt" height="203pt"
 viewBox="0.00 0.00 1145.48 203.45" xmlns="http://www.w3.org/2000/svg" xmlns:xlink="http://www.w3.org/1999/xlink">
<g id="graph0" class="graph" transform="scale(1 1) rotate(0) translate(4 199.4532)">
<title>%3</title>
<polygon fill="#ffffff" stroke="transparent" points="-4,4 -4,-199.4532 1141.4844,-199.4532 1141.4844,4 -4,4"/>
<!-- design -->
<g id="node1" class="node">
<title>design</title>
<ellipse fill="none" stroke="#000000" cx="66.468" cy="-78.5832" rx="66.4361" ry="26.7407"/>
<text text-anchor="middle" x="66.468" y="-82.3832" font-family="Times,serif" font-size="14.00" fill="#000000">design&#45;time:</text>
<text text-anchor="middle" x="66.468" y="-67.3832" font-family="Times,serif" font-size="14.00" fill="#000000">Python/metaL</text>
</g>
<!-- compile -->
<g id="node2" class="node">
<title>compile</title>
<ellipse fill="none" stroke="#000000" cx="324.2031" cy="-168.5832" rx="86.0347" ry="26.7407"/>
<text text-anchor="middle" x="324.2031" y="-172.3832" font-family="Times,serif" font-size="14.00" fill="#000000">compile&#45;time</text>
<text text-anchor="middle" x="324.2031" y="-157.3832" font-family="Times,serif" font-size="14.00" fill="#000000">C/C++/Rust/Java/..</text>
</g>
<!-- design&#45;&gt;compile -->
<g id="edge1" class="edge">
<title>design&#45;&gt;compile</title>
<path fill="none" stroke="#000000" d="M104.7424,-100.8015C118.9328,-108.424 135.3652,-116.5462 150.9361,-122.5832 180.2662,-133.9548 213.4456,-143.5175 242.8625,-150.9271"/>
<polygon fill="#000000" stroke="#000000" points="242.1356,-154.3527 252.6835,-153.3569 243.8168,-147.5576 242.1356,-154.3527"/>
<text text-anchor="middle" x="185.4361" y="-177.3832" font-family="Times,serif" font-size="14.00" fill="#000000">.c .java</text>
<text text-anchor="middle" x="185.4361" y="-162.3832" font-family="Times,serif" font-size="14.00" fill="#000000">source code </text>
<text text-anchor="middle" x="185.4361" y="-147.3832" font-family="Times,serif" font-size="14.00" fill="#000000">in text files</text>
</g>
<!-- assembler -->
<g id="node3" class="node">
<title>assembler</title>
<ellipse fill="none" stroke="#000000" cx="820.6747" cy="-108.5832" rx="50.41" ry="26.7407"/>
<text text-anchor="middle" x="820.6747" y="-112.3832" font-family="Times,serif" font-size="14.00" fill="#000000">assembler</text>
<text text-anchor="middle" x="820.6747" y="-97.3832" font-family="Times,serif" font-size="14.00" fill="#000000">LLVM</text>
</g>
<!-- design&#45;&gt;assembler -->
<g id="edge2" class="edge">
<title>design&#45;&gt;assembler</title>
<path fill="none" stroke="#000000" d="M132.5179,-81.671C205.0803,-85.024 325.0674,-90.4526 428.4701,-94.5832 546.0746,-99.2811 683.547,-104.0135 760.5255,-106.5947"/>
<polygon fill="#000000" stroke="#000000" points="760.4094,-110.0927 770.5209,-106.9292 760.6436,-103.0966 760.4094,-110.0927"/>
<text text-anchor="middle" x="324.2031" y="-98.3832" font-family="Times,serif" font-size="14.00" fill="#000000">.s .asm .ll</text>
</g>
<!-- runtime -->
<g id="node4" class="node">
<title>runtime</title>
<ellipse fill="none" stroke="#000000" cx="1047.6819" cy="-48.5832" rx="89.6056" ry="26.7407"/>
<text text-anchor="middle" x="1047.6819" y="-52.3832" font-family="Times,serif" font-size="14.00" fill="#000000">runtime</text>
<text text-anchor="middle" x="1047.6819" y="-37.3832" font-family="Times,serif" font-size="14.00" fill="#000000">machine code/scipts</text>
</g>
<!-- design&#45;&gt;runtime -->
<g id="edge5" class="edge">
<title>design&#45;&gt;runtime</title>
<path fill="none" stroke="#000000" d="M130.4315,-70.98C202.6757,-62.8057 323.8188,-50.3433 428.4701,-45.5832 572.3214,-39.04 608.472,-44.8515 752.4701,-45.5832 817.5022,-45.9136 890.5894,-46.6535 947.7718,-47.3157"/>
<polygon fill="#000000" stroke="#000000" points="947.8543,-50.8168 957.8945,-47.434 947.9362,-43.8173 947.8543,-50.8168"/>
<text text-anchor="middle" x="590.4701" y="-79.3832" font-family="Times,serif" font-size="14.00" fill="#000000">.py .php</text>
<text text-anchor="middle" x="590.4701" y="-64.3832" font-family="Times,serif" font-size="14.00" fill="#000000">.js .html</text>
<text text-anchor="middle" x="590.4701" y="-49.3832" font-family="Times,serif" font-size="14.00" fill="#000000">misc data files</text>
</g>
<!-- design&#45;&gt;runtime -->
<g id="edge6" class="edge">
<title>design&#45;&gt;runtime</title>
<path fill="none" stroke="#ff0000" d="M123.6304,-64.635C132.7466,-62.5299 142.0874,-60.4432 150.9361,-58.5832 189.4104,-50.4958 199.2507,-49.592 237.9361,-42.5832 322.5776,-27.2482 342.7857,-16.1683 428.4701,-8.5832 571.9092,4.1146 608.7965,1.1061 752.4701,-8.5832 822.471,-13.304 901.1773,-24.2532 959.7078,-33.5045"/>
<polygon fill="#ff0000" stroke="#ff0000" points="959.2314,-36.9727 969.6579,-35.0915 960.334,-30.0601 959.2314,-36.9727"/>
<text text-anchor="middle" x="590.4701" y="-27.3832" font-family="Times,serif" font-size="14.00" fill="#000000">or your language can be run directly in interpretation mode</text>
<text text-anchor="middle" x="590.4701" y="-12.3832" font-family="Times,serif" font-size="14.00" fill="#000000">(not recommended, only for prototyping and debug)</text>
</g>
<!-- compile&#45;&gt;assembler -->
<g id="edge3" class="edge">
<title>compile&#45;&gt;assembler</title>
<path fill="none" stroke="#000000" d="M408.217,-161.9459C494.7923,-154.5478 633.5133,-141.1372 752.4701,-122.5832 756.3238,-121.9821 760.2895,-121.3102 764.2778,-120.5948"/>
<polygon fill="#000000" stroke="#000000" points="765.0005,-124.0204 774.1872,-118.7425 763.7143,-117.1395 765.0005,-124.0204"/>
<text text-anchor="middle" x="590.4701" y="-163.3832" font-family="Times,serif" font-size="14.00" fill="#000000">.tmp.s / RPC</text>
</g>
<!-- assembler&#45;&gt;runtime -->
<g id="edge4" class="edge">
<title>assembler&#45;&gt;runtime</title>
<path fill="none" stroke="#000000" d="M865.7954,-96.6574C895.6973,-88.754 935.6941,-78.1825 970.5662,-68.9655"/>
<polygon fill="#000000" stroke="#000000" points="971.4798,-72.3443 980.2534,-66.4051 969.691,-65.5767 971.4798,-72.3443"/>
<text text-anchor="middle" x="914.3793" y="-108.3832" font-family="Times,serif" font-size="14.00" fill="#000000">.dll .exe</text>
<text text-anchor="middle" x="914.3793" y="-93.3832" font-family="Times,serif" font-size="14.00" fill="#000000">firmware</text>
</g>
</g>
</svg>
