<?xml version="1.0" encoding="UTF-8" standalone="no"?>
<!DOCTYPE svg PUBLIC "-//W3C//DTD SVG 1.1//EN"
 "http://www.w3.org/Graphics/SVG/1.1/DTD/svg11.dtd">
<!-- Generated by graphviz version 2.40.1 (20161225.0304)
 -->
<!-- Title: %3 Pages: 1 -->
<svg width="523pt" height="1027pt"
 viewBox="0.00 0.00 523.17 1027.00" xmlns="http://www.w3.org/2000/svg" xmlns:xlink="http://www.w3.org/1999/xlink">
<g id="graph0" class="graph" transform="scale(1 1) rotate(0) translate(4 1023)">
<title>%3</title>
<polygon fill="#ffffff" stroke="transparent" points="-4,4 -4,-1023 519.1719,-1023 519.1719,4 -4,4"/>
<!-- Object -->
<g id="node1" class="node">
<title>Object</title>
<ellipse fill="none" stroke="#000000" cx="34.4469" cy="-515" rx="34.394" ry="18"/>
<text text-anchor="middle" x="34.4469" y="-511.3" font-family="Times,serif" font-size="14.00" fill="#000000">Object</text>
</g>
<!-- Primitive -->
<g id="node2" class="node">
<title>Primitive</title>
<ellipse fill="none" stroke="#000000" cx="150.3899" cy="-893" rx="44.393" ry="18"/>
<text text-anchor="middle" x="150.3899" y="-889.3" font-family="Times,serif" font-size="14.00" fill="#000000">Primitive</text>
</g>
<!-- Object&#45;&gt;Primitive -->
<g id="edge1" class="edge">
<title>Object&#45;&gt;Primitive</title>
<path fill="none" stroke="#000000" d="M39.3983,-533.0652C50.547,-573.5141 78.6954,-674.3784 104.8939,-758 116.6303,-795.4609 131.3025,-838.3652 140.7585,-865.5626"/>
<polygon fill="#000000" stroke="#000000" points="137.5123,-866.8834 144.1102,-875.1731 144.1219,-864.5783 137.5123,-866.8834"/>
</g>
<!-- Container -->
<g id="node9" class="node">
<title>Container</title>
<ellipse fill="none" stroke="#000000" cx="150.3899" cy="-731" rx="45.4919" ry="18"/>
<text text-anchor="middle" x="150.3899" y="-727.3" font-family="Times,serif" font-size="14.00" fill="#000000">Container</text>
</g>
<!-- Object&#45;&gt;Container -->
<g id="edge8" class="edge">
<title>Object&#45;&gt;Container</title>
<path fill="none" stroke="#000000" d="M43.935,-532.6762C64.2832,-570.5845 112.2106,-659.8726 136.1968,-704.5585"/>
<polygon fill="#000000" stroke="#000000" points="133.1199,-706.2269 140.9333,-713.3825 139.2876,-702.9163 133.1199,-706.2269"/>
</g>
<!-- Active -->
<g id="node13" class="node">
<title>Active</title>
<ellipse fill="none" stroke="#000000" cx="150.3899" cy="-569" rx="34.394" ry="18"/>
<text text-anchor="middle" x="150.3899" y="-565.3" font-family="Times,serif" font-size="14.00" fill="#000000">Active</text>
</g>
<!-- Object&#45;&gt;Active -->
<g id="edge12" class="edge">
<title>Object&#45;&gt;Active</title>
<path fill="none" stroke="#000000" d="M60.1784,-526.9844C76.2774,-534.4824 97.2403,-544.2458 114.9061,-552.4736"/>
<polygon fill="#000000" stroke="#000000" points="113.7866,-555.8131 124.3294,-556.8624 116.7421,-549.4676 113.7866,-555.8131"/>
</g>
<!-- Meta -->
<g id="node17" class="node">
<title>Meta</title>
<ellipse fill="none" stroke="#000000" cx="150.3899" cy="-434" rx="29.4969" ry="18"/>
<text text-anchor="middle" x="150.3899" y="-430.3" font-family="Times,serif" font-size="14.00" fill="#000000">Meta</text>
</g>
<!-- Object&#45;&gt;Meta -->
<g id="edge16" class="edge">
<title>Object&#45;&gt;Meta</title>
<path fill="none" stroke="#000000" d="M55.1752,-500.5188C73.983,-487.3793 101.8606,-467.9035 122.5959,-453.4174"/>
<polygon fill="#000000" stroke="#000000" points="124.8047,-456.1438 130.9979,-447.5476 120.7958,-450.4055 124.8047,-456.1438"/>
</g>
<!-- IO -->
<g id="node22" class="node">
<title>IO</title>
<ellipse fill="none" stroke="#000000" cx="150.3899" cy="-261" rx="27" ry="18"/>
<text text-anchor="middle" x="150.3899" y="-257.3" font-family="Times,serif" font-size="14.00" fill="#000000">IO</text>
</g>
<!-- Object&#45;&gt;IO -->
<g id="edge22" class="edge">
<title>Object&#45;&gt;IO</title>
<path fill="none" stroke="#000000" d="M42.5998,-497.1392C62.6474,-453.2203 114.4372,-339.7628 138.1757,-287.758"/>
<polygon fill="#000000" stroke="#000000" points="141.4313,-289.0543 142.3999,-278.5038 135.0634,-286.1475 141.4313,-289.0543"/>
</g>
<!-- Doc -->
<g id="node32" class="node">
<title>Doc</title>
<ellipse fill="none" stroke="#000000" cx="150.3899" cy="-99" rx="27" ry="18"/>
<text text-anchor="middle" x="150.3899" y="-95.3" font-family="Times,serif" font-size="14.00" fill="#000000">Doc</text>
</g>
<!-- Object&#45;&gt;Doc -->
<g id="edge32" class="edge">
<title>Object&#45;&gt;Doc</title>
<path fill="none" stroke="#000000" d="M38.4111,-497.1144C48.4265,-452.4338 76.0129,-332.4519 104.8939,-234 115.9441,-196.331 130.7811,-153.4766 140.4613,-126.3473"/>
<polygon fill="#000000" stroke="#000000" points="143.8171,-127.3577 143.9002,-116.7632 137.2284,-124.9936 143.8171,-127.3577"/>
</g>
<!-- Number -->
<g id="node3" class="node">
<title>Number</title>
<ellipse fill="none" stroke="#000000" cx="272.1822" cy="-974" rx="40.0939" ry="18"/>
<text text-anchor="middle" x="272.1822" y="-970.3" font-family="Times,serif" font-size="14.00" fill="#000000">Number</text>
</g>
<!-- Primitive&#45;&gt;Number -->
<g id="edge2" class="edge">
<title>Primitive&#45;&gt;Number</title>
<path fill="none" stroke="#000000" d="M173.5847,-908.4261C192.6681,-921.1178 219.8951,-939.2256 240.9045,-953.1982"/>
<polygon fill="#000000" stroke="#000000" points="239.2211,-956.282 249.486,-958.9055 243.0976,-950.4533 239.2211,-956.282"/>
</g>
<!-- Symbol -->
<g id="node7" class="node">
<title>Symbol</title>
<ellipse fill="none" stroke="#000000" cx="272.1822" cy="-920" rx="38.1938" ry="18"/>
<text text-anchor="middle" x="272.1822" y="-916.3" font-family="Times,serif" font-size="14.00" fill="#000000">Symbol</text>
</g>
<!-- Primitive&#45;&gt;Symbol -->
<g id="edge6" class="edge">
<title>Primitive&#45;&gt;Symbol</title>
<path fill="none" stroke="#000000" d="M189.2606,-901.6172C201.4553,-904.3206 215.012,-907.326 227.5713,-910.1102"/>
<polygon fill="#000000" stroke="#000000" points="226.8641,-913.5384 237.3846,-912.2858 228.3792,-906.7043 226.8641,-913.5384"/>
</g>
<!-- String -->
<g id="node8" class="node">
<title>String</title>
<ellipse fill="none" stroke="#000000" cx="272.1822" cy="-866" rx="32.4942" ry="18"/>
<text text-anchor="middle" x="272.1822" y="-862.3" font-family="Times,serif" font-size="14.00" fill="#000000">String</text>
</g>
<!-- Primitive&#45;&gt;String -->
<g id="edge7" class="edge">
<title>Primitive&#45;&gt;String</title>
<path fill="none" stroke="#000000" d="M189.2606,-884.3828C202.7965,-881.382 218.0105,-878.0093 231.6758,-874.9798"/>
<polygon fill="#000000" stroke="#000000" points="232.765,-878.3234 241.7704,-872.742 231.2499,-871.4893 232.765,-878.3234"/>
</g>
<!-- Integer -->
<g id="node4" class="node">
<title>Integer</title>
<ellipse fill="none" stroke="#000000" cx="386.8253" cy="-974" rx="35.9954" ry="18"/>
<text text-anchor="middle" x="386.8253" y="-970.3" font-family="Times,serif" font-size="14.00" fill="#000000">Integer</text>
</g>
<!-- Number&#45;&gt;Integer -->
<g id="edge3" class="edge">
<title>Number&#45;&gt;Integer</title>
<path fill="none" stroke="#000000" d="M312.6011,-974C321.6877,-974 331.3967,-974 340.6967,-974"/>
<polygon fill="#000000" stroke="#000000" points="340.9679,-977.5001 350.9679,-974 340.9678,-970.5001 340.9679,-977.5001"/>
</g>
<!-- Hex -->
<g id="node5" class="node">
<title>Hex</title>
<ellipse fill="none" stroke="#000000" cx="488.1719" cy="-1001" rx="27" ry="18"/>
<text text-anchor="middle" x="488.1719" y="-997.3" font-family="Times,serif" font-size="14.00" fill="#000000">Hex</text>
</g>
<!-- Integer&#45;&gt;Hex -->
<g id="edge4" class="edge">
<title>Integer&#45;&gt;Hex</title>
<path fill="none" stroke="#000000" d="M418.6139,-982.4689C429.5473,-985.3817 441.8493,-988.6591 453.0337,-991.6387"/>
<polygon fill="#000000" stroke="#000000" points="452.3554,-995.0801 462.9194,-994.2724 454.1575,-988.316 452.3554,-995.0801"/>
</g>
<!-- Bin -->
<g id="node6" class="node">
<title>Bin</title>
<ellipse fill="none" stroke="#000000" cx="488.1719" cy="-947" rx="27" ry="18"/>
<text text-anchor="middle" x="488.1719" y="-943.3" font-family="Times,serif" font-size="14.00" fill="#000000">Bin</text>
</g>
<!-- Integer&#45;&gt;Bin -->
<g id="edge5" class="edge">
<title>Integer&#45;&gt;Bin</title>
<path fill="none" stroke="#000000" d="M418.6139,-965.5311C429.5473,-962.6183 441.8493,-959.3409 453.0337,-956.3613"/>
<polygon fill="#000000" stroke="#000000" points="454.1575,-959.684 462.9194,-953.7276 452.3554,-952.9199 454.1575,-959.684"/>
</g>
<!-- Vector -->
<g id="node10" class="node">
<title>Vector</title>
<ellipse fill="none" stroke="#000000" cx="272.1822" cy="-812" rx="34.394" ry="18"/>
<text text-anchor="middle" x="272.1822" y="-808.3" font-family="Times,serif" font-size="14.00" fill="#000000">Vector</text>
</g>
<!-- Container&#45;&gt;Vector -->
<g id="edge9" class="edge">
<title>Container&#45;&gt;Vector</title>
<path fill="none" stroke="#000000" d="M173.8726,-746.6176C193.3483,-759.5702 221.1597,-778.0666 242.2349,-792.0831"/>
<polygon fill="#000000" stroke="#000000" points="240.5459,-795.1631 250.8108,-797.7866 244.4224,-789.3344 240.5459,-795.1631"/>
</g>
<!-- Stack -->
<g id="node11" class="node">
<title>Stack</title>
<ellipse fill="none" stroke="#000000" cx="272.1822" cy="-758" rx="30.5947" ry="18"/>
<text text-anchor="middle" x="272.1822" y="-754.3" font-family="Times,serif" font-size="14.00" fill="#000000">Stack</text>
</g>
<!-- Container&#45;&gt;Stack -->
<g id="edge10" class="edge">
<title>Container&#45;&gt;Stack</title>
<path fill="none" stroke="#000000" d="M190.2692,-739.8408C204.09,-742.9047 219.5569,-746.3336 233.2965,-749.3795"/>
<polygon fill="#000000" stroke="#000000" points="232.8902,-752.8743 243.4107,-751.6217 234.4053,-746.0402 232.8902,-752.8743"/>
</g>
<!-- Dict -->
<g id="node12" class="node">
<title>Dict</title>
<ellipse fill="none" stroke="#000000" cx="272.1822" cy="-704" rx="27" ry="18"/>
<text text-anchor="middle" x="272.1822" y="-700.3" font-family="Times,serif" font-size="14.00" fill="#000000">Dict</text>
</g>
<!-- Container&#45;&gt;Dict -->
<g id="edge11" class="edge">
<title>Container&#45;&gt;Dict</title>
<path fill="none" stroke="#000000" d="M190.2692,-722.1592C205.1187,-718.8672 221.8685,-715.154 236.3344,-711.9471"/>
<polygon fill="#000000" stroke="#000000" points="237.399,-715.2961 246.4044,-709.7147 235.8839,-708.462 237.399,-715.2961"/>
</g>
<!-- VM -->
<g id="node14" class="node">
<title>VM</title>
<ellipse fill="none" stroke="#000000" cx="272.1822" cy="-650" rx="27" ry="18"/>
<text text-anchor="middle" x="272.1822" y="-646.3" font-family="Times,serif" font-size="14.00" fill="#000000">VM</text>
</g>
<!-- Active&#45;&gt;VM -->
<g id="edge13" class="edge">
<title>Active&#45;&gt;VM</title>
<path fill="none" stroke="#000000" d="M171.8835,-583.2947C192.0502,-596.7069 222.3205,-616.8386 244.3302,-631.4765"/>
<polygon fill="#000000" stroke="#000000" points="242.6442,-634.5586 252.9091,-637.1821 246.5207,-628.7299 242.6442,-634.5586"/>
</g>
<!-- Op -->
<g id="node15" class="node">
<title>Op</title>
<ellipse fill="none" stroke="#000000" cx="272.1822" cy="-596" rx="27" ry="18"/>
<text text-anchor="middle" x="272.1822" y="-592.3" font-family="Times,serif" font-size="14.00" fill="#000000">Op</text>
</g>
<!-- Active&#45;&gt;Op -->
<g id="edge14" class="edge">
<title>Active&#45;&gt;Op</title>
<path fill="none" stroke="#000000" d="M182.3894,-576.0939C198.965,-579.7686 219.2592,-584.2676 236.3581,-588.0582"/>
<polygon fill="#000000" stroke="#000000" points="236.0094,-591.5658 246.5299,-590.3132 237.5245,-584.7317 236.0094,-591.5658"/>
</g>
<!-- Fn -->
<g id="node16" class="node">
<title>Fn</title>
<ellipse fill="none" stroke="#000000" cx="272.1822" cy="-542" rx="27" ry="18"/>
<text text-anchor="middle" x="272.1822" y="-538.3" font-family="Times,serif" font-size="14.00" fill="#000000">Fn</text>
</g>
<!-- Active&#45;&gt;Fn -->
<g id="edge15" class="edge">
<title>Active&#45;&gt;Fn</title>
<path fill="none" stroke="#000000" d="M182.3894,-561.9061C198.965,-558.2314 219.2592,-553.7324 236.3581,-549.9418"/>
<polygon fill="#000000" stroke="#000000" points="237.5245,-553.2683 246.5299,-547.6868 236.0094,-546.4342 237.5245,-553.2683"/>
</g>
<!-- Method -->
<g id="node20" class="node">
<title>Method</title>
<ellipse fill="none" stroke="#000000" cx="386.8253" cy="-469" rx="38.1938" ry="18"/>
<text text-anchor="middle" x="386.8253" y="-465.3" font-family="Times,serif" font-size="14.00" fill="#000000">Method</text>
</g>
<!-- Fn&#45;&gt;Method -->
<g id="edge21" class="edge">
<title>Fn&#45;&gt;Method</title>
<path fill="none" stroke="#000000" d="M291.8901,-529.4509C309.2895,-518.3716 334.967,-502.0212 355.2316,-489.1176"/>
<polygon fill="#000000" stroke="#000000" points="357.2728,-491.9672 363.828,-483.6437 353.513,-486.0626 357.2728,-491.9672"/>
</g>
<!-- Module -->
<g id="node18" class="node">
<title>Module</title>
<ellipse fill="none" stroke="#000000" cx="272.1822" cy="-488" rx="38.1938" ry="18"/>
<text text-anchor="middle" x="272.1822" y="-484.3" font-family="Times,serif" font-size="14.00" fill="#000000">Module</text>
</g>
<!-- Meta&#45;&gt;Module -->
<g id="edge17" class="edge">
<title>Meta&#45;&gt;Module</title>
<path fill="none" stroke="#000000" d="M174.1618,-444.5399C191.4142,-452.1893 215.0953,-462.6889 234.859,-471.4517"/>
<polygon fill="#000000" stroke="#000000" points="233.6408,-474.7402 244.2012,-475.5938 236.4781,-468.3409 233.6408,-474.7402"/>
</g>
<!-- Class -->
<g id="node19" class="node">
<title>Class</title>
<ellipse fill="none" stroke="#000000" cx="272.1822" cy="-434" rx="29.795" ry="18"/>
<text text-anchor="middle" x="272.1822" y="-430.3" font-family="Times,serif" font-size="14.00" fill="#000000">Class</text>
</g>
<!-- Meta&#45;&gt;Class -->
<g id="edge18" class="edge">
<title>Meta&#45;&gt;Class</title>
<path fill="none" stroke="#000000" d="M179.8724,-434C195.4968,-434 214.9205,-434 231.914,-434"/>
<polygon fill="#000000" stroke="#000000" points="232.1251,-437.5001 242.1251,-434 232.1251,-430.5001 232.1251,-437.5001"/>
</g>
<!-- Meta&#45;&gt;Method -->
<g id="edge19" class="edge">
<title>Meta&#45;&gt;Method</title>
<path fill="none" stroke="#000000" d="M173.6069,-422.96C205.6918,-409.2927 265.0028,-389.8019 312.4787,-407 333.2777,-414.5345 352.343,-430.7114 365.9589,-444.6519"/>
<polygon fill="#000000" stroke="#000000" points="363.5463,-447.1958 372.9391,-452.0973 368.653,-442.4081 363.5463,-447.1958"/>
</g>
<!-- Section -->
<g id="node21" class="node">
<title>Section</title>
<ellipse fill="none" stroke="#000000" cx="272.1822" cy="-342" rx="37.0935" ry="18"/>
<text text-anchor="middle" x="272.1822" y="-338.3" font-family="Times,serif" font-size="14.00" fill="#000000">Section</text>
</g>
<!-- Meta&#45;&gt;Section -->
<g id="edge20" class="edge">
<title>Meta&#45;&gt;Section</title>
<path fill="none" stroke="#000000" d="M168.8875,-420.0272C188.8011,-404.9848 220.7231,-380.8714 243.8137,-363.4291"/>
<polygon fill="#000000" stroke="#000000" points="246.0129,-366.1543 251.8826,-357.334 241.7937,-360.5687 246.0129,-366.1543"/>
</g>
<!-- File -->
<g id="node23" class="node">
<title>File</title>
<ellipse fill="none" stroke="#000000" cx="272.1822" cy="-288" rx="27" ry="18"/>
<text text-anchor="middle" x="272.1822" y="-284.3" font-family="Times,serif" font-size="14.00" fill="#000000">File</text>
</g>
<!-- IO&#45;&gt;File -->
<g id="edge23" class="edge">
<title>IO&#45;&gt;File</title>
<path fill="none" stroke="#000000" d="M176.2189,-266.726C193.7387,-270.61 217.133,-275.7962 236.4367,-280.0756"/>
<polygon fill="#000000" stroke="#000000" points="235.8699,-283.5349 246.3904,-282.2822 237.385,-276.7008 235.8699,-283.5349"/>
</g>
<!-- Dir -->
<g id="node24" class="node">
<title>Dir</title>
<ellipse fill="none" stroke="#000000" cx="272.1822" cy="-234" rx="27" ry="18"/>
<text text-anchor="middle" x="272.1822" y="-230.3" font-family="Times,serif" font-size="14.00" fill="#000000">Dir</text>
</g>
<!-- IO&#45;&gt;Dir -->
<g id="edge24" class="edge">
<title>IO&#45;&gt;Dir</title>
<path fill="none" stroke="#000000" d="M176.2189,-255.274C193.7387,-251.39 217.133,-246.2038 236.4367,-241.9244"/>
<polygon fill="#000000" stroke="#000000" points="237.385,-245.2992 246.3904,-239.7178 235.8699,-238.4651 237.385,-245.2992"/>
</g>
<!-- Net -->
<g id="node25" class="node">
<title>Net</title>
<ellipse fill="none" stroke="#000000" cx="272.1822" cy="-180" rx="27" ry="18"/>
<text text-anchor="middle" x="272.1822" y="-176.3" font-family="Times,serif" font-size="14.00" fill="#000000">Net</text>
</g>
<!-- IO&#45;&gt;Net -->
<g id="edge25" class="edge">
<title>IO&#45;&gt;Net</title>
<path fill="none" stroke="#000000" d="M169.6882,-248.1653C189.8211,-234.7756 221.5736,-213.6581 244.4027,-198.4752"/>
<polygon fill="#000000" stroke="#000000" points="246.5857,-201.2268 252.9742,-192.7746 242.7093,-195.3981 246.5857,-201.2268"/>
</g>
<!-- Ip -->
<g id="node26" class="node">
<title>Ip</title>
<ellipse fill="none" stroke="#000000" cx="386.8253" cy="-315" rx="27" ry="18"/>
<text text-anchor="middle" x="386.8253" y="-311.3" font-family="Times,serif" font-size="14.00" fill="#000000">Ip</text>
</g>
<!-- Net&#45;&gt;Ip -->
<g id="edge26" class="edge">
<title>Net&#45;&gt;Ip</title>
<path fill="none" stroke="#000000" d="M293.6302,-191.2071C300.307,-195.4699 307.2747,-200.8134 312.4787,-207 337.8382,-237.1479 323.4697,-257.5607 348.4787,-288 351.2116,-291.3264 354.4515,-294.4305 357.8723,-297.2623"/>
<polygon fill="#000000" stroke="#000000" points="355.9221,-300.1742 366.0292,-303.3519 360.1098,-294.5649 355.9221,-300.1742"/>
</g>
<!-- Port -->
<g id="node27" class="node">
<title>Port</title>
<ellipse fill="none" stroke="#000000" cx="386.8253" cy="-261" rx="27" ry="18"/>
<text text-anchor="middle" x="386.8253" y="-257.3" font-family="Times,serif" font-size="14.00" fill="#000000">Port</text>
</g>
<!-- Net&#45;&gt;Port -->
<g id="edge27" class="edge">
<title>Net&#45;&gt;Port</title>
<path fill="none" stroke="#000000" d="M291.5917,-192.7032C298.2643,-197.1499 305.7472,-202.2256 312.4787,-207 328.792,-218.5704 332.3003,-222.2416 348.4787,-234 352.134,-236.6567 356.0068,-239.4306 359.8309,-242.1458"/>
<polygon fill="#000000" stroke="#000000" points="357.8334,-245.02 368.0213,-247.9282 361.8707,-239.3015 357.8334,-245.02"/>
</g>
<!-- Email -->
<g id="node28" class="node">
<title>Email</title>
<ellipse fill="none" stroke="#000000" cx="386.8253" cy="-207" rx="32.4942" ry="18"/>
<text text-anchor="middle" x="386.8253" y="-203.3" font-family="Times,serif" font-size="14.00" fill="#000000">Email</text>
</g>
<!-- Net&#45;&gt;Email -->
<g id="edge28" class="edge">
<title>Net&#45;&gt;Email</title>
<path fill="none" stroke="#000000" d="M297.9104,-186.0593C312.3433,-189.4585 330.6623,-193.7729 346.9172,-197.6011"/>
<polygon fill="#000000" stroke="#000000" points="346.1821,-201.0237 356.7182,-199.9094 347.7869,-194.2101 346.1821,-201.0237"/>
</g>
<!-- Url -->
<g id="node29" class="node">
<title>Url</title>
<ellipse fill="none" stroke="#000000" cx="386.8253" cy="-153" rx="27" ry="18"/>
<text text-anchor="middle" x="386.8253" y="-149.3" font-family="Times,serif" font-size="14.00" fill="#000000">Url</text>
</g>
<!-- Net&#45;&gt;Url -->
<g id="edge29" class="edge">
<title>Net&#45;&gt;Url</title>
<path fill="none" stroke="#000000" d="M297.9104,-173.9407C313.6935,-170.2235 334.124,-165.4119 351.4202,-161.3384"/>
<polygon fill="#000000" stroke="#000000" points="352.2517,-164.7384 361.183,-159.0391 350.6469,-157.9248 352.2517,-164.7384"/>
</g>
<!-- User -->
<g id="node30" class="node">
<title>User</title>
<ellipse fill="none" stroke="#000000" cx="386.8253" cy="-99" rx="27.0966" ry="18"/>
<text text-anchor="middle" x="386.8253" y="-95.3" font-family="Times,serif" font-size="14.00" fill="#000000">User</text>
</g>
<!-- Net&#45;&gt;User -->
<g id="edge30" class="edge">
<title>Net&#45;&gt;User</title>
<path fill="none" stroke="#000000" d="M291.5917,-167.2968C298.2643,-162.8501 305.7472,-157.7744 312.4787,-153 328.792,-141.4296 332.3003,-137.7584 348.4787,-126 352.134,-123.3433 356.0068,-120.5694 359.8309,-117.8542"/>
<polygon fill="#000000" stroke="#000000" points="361.8707,-120.6985 368.0213,-112.0718 357.8334,-114.98 361.8707,-120.6985"/>
</g>
<!-- Pswd -->
<g id="node31" class="node">
<title>Pswd</title>
<ellipse fill="none" stroke="#000000" cx="386.8253" cy="-45" rx="29.795" ry="18"/>
<text text-anchor="middle" x="386.8253" y="-41.3" font-family="Times,serif" font-size="14.00" fill="#000000">Pswd</text>
</g>
<!-- Net&#45;&gt;Pswd -->
<g id="edge31" class="edge">
<title>Net&#45;&gt;Pswd</title>
<path fill="none" stroke="#000000" d="M293.6302,-168.7929C300.307,-164.5301 307.2747,-159.1866 312.4787,-153 337.8382,-122.8521 323.4697,-102.4393 348.4787,-72 350.895,-69.0589 353.7077,-66.2916 356.6913,-63.7327"/>
<polygon fill="#000000" stroke="#000000" points="359.0413,-66.3407 364.8337,-57.4695 354.7734,-60.7923 359.0413,-66.3407"/>
</g>
<!-- Title -->
<g id="node33" class="node">
<title>Title</title>
<ellipse fill="none" stroke="#000000" cx="272.1822" cy="-126" rx="27.0966" ry="18"/>
<text text-anchor="middle" x="272.1822" y="-122.3" font-family="Times,serif" font-size="14.00" fill="#000000">Title</text>
</g>
<!-- Doc&#45;&gt;Title -->
<g id="edge33" class="edge">
<title>Doc&#45;&gt;Title</title>
<path fill="none" stroke="#000000" d="M176.2189,-104.726C193.6204,-108.5837 216.8171,-113.7262 236.0448,-117.9887"/>
<polygon fill="#000000" stroke="#000000" points="235.45,-121.4418 245.9706,-120.1892 236.9651,-114.6077 235.45,-121.4418"/>
</g>
<!-- Author -->
<g id="node34" class="node">
<title>Author</title>
<ellipse fill="none" stroke="#000000" cx="272.1822" cy="-72" rx="35.9954" ry="18"/>
<text text-anchor="middle" x="272.1822" y="-68.3" font-family="Times,serif" font-size="14.00" fill="#000000">Author</text>
</g>
<!-- Doc&#45;&gt;Author -->
<g id="edge34" class="edge">
<title>Doc&#45;&gt;Author</title>
<path fill="none" stroke="#000000" d="M176.2189,-93.274C191.6287,-89.8578 211.583,-85.4342 229.3013,-81.5062"/>
<polygon fill="#000000" stroke="#000000" points="230.4185,-84.8436 239.424,-79.2621 228.9035,-78.0095 230.4185,-84.8436"/>
</g>
<!-- License -->
<g id="node35" class="node">
<title>License</title>
<ellipse fill="none" stroke="#000000" cx="272.1822" cy="-18" rx="38.1938" ry="18"/>
<text text-anchor="middle" x="272.1822" y="-14.3" font-family="Times,serif" font-size="14.00" fill="#000000">License</text>
</g>
<!-- Doc&#45;&gt;License -->
<g id="edge35" class="edge">
<title>Doc&#45;&gt;License</title>
<path fill="none" stroke="#000000" d="M169.6882,-86.1653C188.8736,-73.4057 218.6109,-53.6285 241.1226,-38.6567"/>
<polygon fill="#000000" stroke="#000000" points="243.2755,-41.4283 249.6639,-32.9762 239.399,-35.5996 243.2755,-41.4283"/>
</g>
</g>
</svg>
