<?xml version="1.0" encoding="UTF-8" standalone="no"?>
<!DOCTYPE svg PUBLIC "-//W3C//DTD SVG 1.1//EN"
 "http://www.w3.org/Graphics/SVG/1.1/DTD/svg11.dtd">
<!-- Generated by graphviz version 2.40.1 (20161225.0304)
 -->
<!-- Title: %3 Pages: 1 -->
<svg width="523pt" height="628pt"
 viewBox="0.00 0.00 523.17 628.33" xmlns="http://www.w3.org/2000/svg" xmlns:xlink="http://www.w3.org/1999/xlink">
<g id="graph0" class="graph" transform="scale(1 1) rotate(0) translate(4 624.3252)">
<title>%3</title>
<polygon fill="#ffffff" stroke="transparent" points="-4,4 -4,-624.3252 519.1719,-624.3252 519.1719,4 -4,4"/>
<!-- Object -->
<g id="node1" class="node">
<title>Object</title>
<ellipse fill="none" stroke="#000000" cx="34.4469" cy="-305.3252" rx="34.394" ry="18"/>
<text text-anchor="middle" x="34.4469" y="-301.6252" font-family="Times,serif" font-size="14.00" fill="#000000">Object</text>
</g>
<!-- Primitive -->
<g id="node2" class="node">
<title>Primitive</title>
<ellipse fill="none" stroke="#000000" cx="150.3899" cy="-494.3252" rx="44.393" ry="18"/>
<text text-anchor="middle" x="150.3899" y="-490.6252" font-family="Times,serif" font-size="14.00" fill="#000000">Primitive</text>
</g>
<!-- Object&#45;&gt;Primitive -->
<g id="edge1" class="edge">
<title>Object&#45;&gt;Primitive</title>
<path fill="none" stroke="#000000" d="M45.1468,-322.7671C65.5431,-356.0155 110.096,-428.6416 134.1742,-467.8918"/>
<polygon fill="#000000" stroke="#000000" points="131.3349,-469.957 139.5473,-476.6507 137.3016,-466.2966 131.3349,-469.957"/>
</g>
<!-- Container -->
<g id="node9" class="node">
<title>Container</title>
<ellipse fill="none" stroke="#000000" cx="150.3899" cy="-332.3252" rx="45.4919" ry="18"/>
<text text-anchor="middle" x="150.3899" y="-328.6252" font-family="Times,serif" font-size="14.00" fill="#000000">Container</text>
</g>
<!-- Object&#45;&gt;Container -->
<g id="edge8" class="edge">
<title>Object&#45;&gt;Container</title>
<path fill="none" stroke="#000000" d="M66.1289,-312.7031C76.9194,-315.2159 89.2516,-318.0878 101.0903,-320.8447"/>
<polygon fill="#000000" stroke="#000000" points="100.3407,-324.2637 110.8739,-323.123 101.9283,-317.4461 100.3407,-324.2637"/>
</g>
<!-- Active -->
<g id="node13" class="node">
<title>Active</title>
<ellipse fill="none" stroke="#000000" cx="150.3899" cy="-224.3252" rx="34.394" ry="18"/>
<text text-anchor="middle" x="150.3899" y="-220.6252" font-family="Times,serif" font-size="14.00" fill="#000000">Active</text>
</g>
<!-- Object&#45;&gt;Active -->
<g id="edge12" class="edge">
<title>Object&#45;&gt;Active</title>
<path fill="none" stroke="#000000" d="M55.1752,-290.844C73.5271,-278.023 100.5143,-259.1693 121.0755,-244.8048"/>
<polygon fill="#000000" stroke="#000000" points="123.2569,-247.5504 129.4501,-238.9541 119.248,-241.812 123.2569,-247.5504"/>
</g>
<!-- Meta -->
<g id="node17" class="node">
<title>Meta</title>
<ellipse fill="none" stroke="#000000" cx="150.3899" cy="-62.3252" rx="29.4969" ry="18"/>
<text text-anchor="middle" x="150.3899" y="-58.6252" font-family="Times,serif" font-size="14.00" fill="#000000">Meta</text>
</g>
<!-- Object&#45;&gt;Meta -->
<g id="edge16" class="edge">
<title>Object&#45;&gt;Meta</title>
<path fill="none" stroke="#000000" d="M42.7853,-287.8493C62.8406,-245.8161 113.8756,-138.8539 137.7348,-88.8484"/>
<polygon fill="#000000" stroke="#000000" points="140.9796,-90.1753 142.1271,-79.6428 134.6619,-87.1609 140.9796,-90.1753"/>
</g>
<!-- Number -->
<g id="node3" class="node">
<title>Number</title>
<ellipse fill="none" stroke="#000000" cx="272.1822" cy="-575.3252" rx="40.0939" ry="18"/>
<text text-anchor="middle" x="272.1822" y="-571.6252" font-family="Times,serif" font-size="14.00" fill="#000000">Number</text>
</g>
<!-- Primitive&#45;&gt;Number -->
<g id="edge2" class="edge">
<title>Primitive&#45;&gt;Number</title>
<path fill="none" stroke="#000000" d="M173.5847,-509.7513C192.6681,-522.443 219.8951,-540.5508 240.9045,-554.5234"/>
<polygon fill="#000000" stroke="#000000" points="239.2211,-557.6072 249.486,-560.2307 243.0976,-551.7786 239.2211,-557.6072"/>
</g>
<!-- Symbol -->
<g id="node7" class="node">
<title>Symbol</title>
<ellipse fill="none" stroke="#000000" cx="272.1822" cy="-521.3252" rx="38.1938" ry="18"/>
<text text-anchor="middle" x="272.1822" y="-517.6252" font-family="Times,serif" font-size="14.00" fill="#000000">Symbol</text>
</g>
<!-- Primitive&#45;&gt;Symbol -->
<g id="edge6" class="edge">
<title>Primitive&#45;&gt;Symbol</title>
<path fill="none" stroke="#000000" d="M189.2606,-502.9424C201.4553,-505.6459 215.012,-508.6512 227.5713,-511.4355"/>
<polygon fill="#000000" stroke="#000000" points="226.8641,-514.8636 237.3846,-513.611 228.3792,-508.0295 226.8641,-514.8636"/>
</g>
<!-- String -->
<g id="node8" class="node">
<title>String</title>
<ellipse fill="none" stroke="#000000" cx="272.1822" cy="-467.3252" rx="32.4942" ry="18"/>
<text text-anchor="middle" x="272.1822" y="-463.6252" font-family="Times,serif" font-size="14.00" fill="#000000">String</text>
</g>
<!-- Primitive&#45;&gt;String -->
<g id="edge7" class="edge">
<title>Primitive&#45;&gt;String</title>
<path fill="none" stroke="#000000" d="M189.2606,-485.708C202.7965,-482.7072 218.0105,-479.3345 231.6758,-476.305"/>
<polygon fill="#000000" stroke="#000000" points="232.765,-479.6486 241.7704,-474.0672 231.2499,-472.8145 232.765,-479.6486"/>
</g>
<!-- Integer -->
<g id="node4" class="node">
<title>Integer</title>
<ellipse fill="none" stroke="#000000" cx="386.8253" cy="-575.3252" rx="35.9954" ry="18"/>
<text text-anchor="middle" x="386.8253" y="-571.6252" font-family="Times,serif" font-size="14.00" fill="#000000">Integer</text>
</g>
<!-- Number&#45;&gt;Integer -->
<g id="edge3" class="edge">
<title>Number&#45;&gt;Integer</title>
<path fill="none" stroke="#000000" d="M312.6011,-575.3252C321.6877,-575.3252 331.3967,-575.3252 340.6967,-575.3252"/>
<polygon fill="#000000" stroke="#000000" points="340.9679,-578.8253 350.9679,-575.3252 340.9678,-571.8253 340.9679,-578.8253"/>
</g>
<!-- Hex -->
<g id="node5" class="node">
<title>Hex</title>
<ellipse fill="none" stroke="#000000" cx="488.1719" cy="-602.3252" rx="27" ry="18"/>
<text text-anchor="middle" x="488.1719" y="-598.6252" font-family="Times,serif" font-size="14.00" fill="#000000">Hex</text>
</g>
<!-- Integer&#45;&gt;Hex -->
<g id="edge4" class="edge">
<title>Integer&#45;&gt;Hex</title>
<path fill="none" stroke="#000000" d="M418.6139,-583.7941C429.5473,-586.7069 441.8493,-589.9843 453.0337,-592.964"/>
<polygon fill="#000000" stroke="#000000" points="452.3554,-596.4053 462.9194,-595.5976 454.1575,-589.6412 452.3554,-596.4053"/>
</g>
<!-- Bin -->
<g id="node6" class="node">
<title>Bin</title>
<ellipse fill="none" stroke="#000000" cx="488.1719" cy="-548.3252" rx="27" ry="18"/>
<text text-anchor="middle" x="488.1719" y="-544.6252" font-family="Times,serif" font-size="14.00" fill="#000000">Bin</text>
</g>
<!-- Integer&#45;&gt;Bin -->
<g id="edge5" class="edge">
<title>Integer&#45;&gt;Bin</title>
<path fill="none" stroke="#000000" d="M418.6139,-566.8563C429.5473,-563.9435 441.8493,-560.6661 453.0337,-557.6865"/>
<polygon fill="#000000" stroke="#000000" points="454.1575,-561.0092 462.9194,-555.0528 452.3554,-554.2452 454.1575,-561.0092"/>
</g>
<!-- Vector -->
<g id="node10" class="node">
<title>Vector</title>
<ellipse fill="none" stroke="#000000" cx="272.1822" cy="-413.3252" rx="34.394" ry="18"/>
<text text-anchor="middle" x="272.1822" y="-409.6252" font-family="Times,serif" font-size="14.00" fill="#000000">Vector</text>
</g>
<!-- Container&#45;&gt;Vector -->
<g id="edge9" class="edge">
<title>Container&#45;&gt;Vector</title>
<path fill="none" stroke="#000000" d="M173.8726,-347.9428C193.3483,-360.8954 221.1597,-379.3918 242.2349,-393.4083"/>
<polygon fill="#000000" stroke="#000000" points="240.5459,-396.4883 250.8108,-399.1118 244.4224,-390.6596 240.5459,-396.4883"/>
</g>
<!-- Stack -->
<g id="node11" class="node">
<title>Stack</title>
<ellipse fill="none" stroke="#000000" cx="272.1822" cy="-359.3252" rx="30.5947" ry="18"/>
<text text-anchor="middle" x="272.1822" y="-355.6252" font-family="Times,serif" font-size="14.00" fill="#000000">Stack</text>
</g>
<!-- Container&#45;&gt;Stack -->
<g id="edge10" class="edge">
<title>Container&#45;&gt;Stack</title>
<path fill="none" stroke="#000000" d="M190.2692,-341.166C204.09,-344.2299 219.5569,-347.6588 233.2965,-350.7047"/>
<polygon fill="#000000" stroke="#000000" points="232.8902,-354.1995 243.4107,-352.9469 234.4053,-347.3654 232.8902,-354.1995"/>
</g>
<!-- Dict -->
<g id="node12" class="node">
<title>Dict</title>
<ellipse fill="none" stroke="#000000" cx="272.1822" cy="-305.3252" rx="27" ry="18"/>
<text text-anchor="middle" x="272.1822" y="-301.6252" font-family="Times,serif" font-size="14.00" fill="#000000">Dict</text>
</g>
<!-- Container&#45;&gt;Dict -->
<g id="edge11" class="edge">
<title>Container&#45;&gt;Dict</title>
<path fill="none" stroke="#000000" d="M190.2692,-323.4844C205.1187,-320.1925 221.8685,-316.4792 236.3344,-313.2723"/>
<polygon fill="#000000" stroke="#000000" points="237.399,-316.6213 246.4044,-311.0399 235.8839,-309.7872 237.399,-316.6213"/>
</g>
<!-- VM -->
<g id="node14" class="node">
<title>VM</title>
<ellipse fill="none" stroke="#000000" cx="272.1822" cy="-251.3252" rx="27" ry="18"/>
<text text-anchor="middle" x="272.1822" y="-247.6252" font-family="Times,serif" font-size="14.00" fill="#000000">VM</text>
</g>
<!-- Active&#45;&gt;VM -->
<g id="edge13" class="edge">
<title>Active&#45;&gt;VM</title>
<path fill="none" stroke="#000000" d="M182.3894,-231.4191C198.965,-235.0938 219.2592,-239.5928 236.3581,-243.3834"/>
<polygon fill="#000000" stroke="#000000" points="236.0094,-246.891 246.5299,-245.6384 237.5245,-240.0569 236.0094,-246.891"/>
</g>
<!-- Op -->
<g id="node15" class="node">
<title>Op</title>
<ellipse fill="none" stroke="#000000" cx="272.1822" cy="-197.3252" rx="27" ry="18"/>
<text text-anchor="middle" x="272.1822" y="-193.6252" font-family="Times,serif" font-size="14.00" fill="#000000">Op</text>
</g>
<!-- Active&#45;&gt;Op -->
<g id="edge14" class="edge">
<title>Active&#45;&gt;Op</title>
<path fill="none" stroke="#000000" d="M182.3894,-217.2313C198.965,-213.5566 219.2592,-209.0577 236.3581,-205.267"/>
<polygon fill="#000000" stroke="#000000" points="237.5245,-208.5935 246.5299,-203.012 236.0094,-201.7594 237.5245,-208.5935"/>
</g>
<!-- Fn -->
<g id="node16" class="node">
<title>Fn</title>
<ellipse fill="none" stroke="#000000" cx="272.1822" cy="-143.3252" rx="27" ry="18"/>
<text text-anchor="middle" x="272.1822" y="-139.6252" font-family="Times,serif" font-size="14.00" fill="#000000">Fn</text>
</g>
<!-- Active&#45;&gt;Fn -->
<g id="edge15" class="edge">
<title>Active&#45;&gt;Fn</title>
<path fill="none" stroke="#000000" d="M171.8835,-210.0305C192.0502,-196.6183 222.3205,-176.4866 244.3302,-161.8487"/>
<polygon fill="#000000" stroke="#000000" points="246.5207,-164.5953 252.9091,-156.1431 242.6442,-158.7666 246.5207,-164.5953"/>
</g>
<!-- Method -->
<g id="node20" class="node">
<title>Method</title>
<ellipse fill="none" stroke="#000000" cx="386.8253" cy="-66.3252" rx="38.1938" ry="18"/>
<text text-anchor="middle" x="386.8253" y="-62.6252" font-family="Times,serif" font-size="14.00" fill="#000000">Method</text>
</g>
<!-- Fn&#45;&gt;Method -->
<g id="edge20" class="edge">
<title>Fn&#45;&gt;Method</title>
<path fill="none" stroke="#000000" d="M291.4539,-130.4223C298.1154,-125.9596 305.6266,-120.9248 312.4787,-116.3252 326.8868,-106.6533 342.8565,-95.9156 356.2904,-86.8778"/>
<polygon fill="#000000" stroke="#000000" points="358.3675,-89.6988 364.7104,-81.2125 354.4597,-83.8911 358.3675,-89.6988"/>
</g>
<!-- Module -->
<g id="node18" class="node">
<title>Module</title>
<ellipse fill="none" stroke="#000000" cx="272.1822" cy="-89.3252" rx="38.1938" ry="18"/>
<text text-anchor="middle" x="272.1822" y="-85.6252" font-family="Times,serif" font-size="14.00" fill="#000000">Module</text>
</g>
<!-- Meta&#45;&gt;Module -->
<g id="edge17" class="edge">
<title>Meta&#45;&gt;Module</title>
<path fill="none" stroke="#000000" d="M178.0264,-68.4519C192.5566,-71.6731 210.7309,-75.7021 227.2266,-79.3591"/>
<polygon fill="#000000" stroke="#000000" points="226.7125,-82.83 237.233,-81.5774 228.2276,-75.9959 226.7125,-82.83"/>
</g>
<!-- Class -->
<g id="node19" class="node">
<title>Class</title>
<ellipse fill="none" stroke="#000000" cx="272.1822" cy="-35.3252" rx="29.795" ry="18"/>
<text text-anchor="middle" x="272.1822" y="-31.6252" font-family="Times,serif" font-size="14.00" fill="#000000">Class</text>
</g>
<!-- Meta&#45;&gt;Class -->
<g id="edge18" class="edge">
<title>Meta&#45;&gt;Class</title>
<path fill="none" stroke="#000000" d="M178.0264,-56.1985C194.5305,-52.5397 215.7361,-47.8387 233.8431,-43.8246"/>
<polygon fill="#000000" stroke="#000000" points="234.8044,-47.1965 243.8098,-41.6151 233.2893,-40.3624 234.8044,-47.1965"/>
</g>
<!-- Meta&#45;&gt;Method -->
<g id="edge19" class="edge">
<title>Meta&#45;&gt;Method</title>
<path fill="none" stroke="#000000" d="M166.6735,-47.2849C182.1338,-34.1087 206.6962,-15.9133 231.8858,-8.3252 266.1825,2.0063 278.6069,3.3242 312.4787,-8.3252 332.2781,-15.1347 350.8509,-29.6171 364.4808,-42.4059"/>
<polygon fill="#000000" stroke="#000000" points="362.3104,-45.1789 371.9066,-49.6693 367.2051,-40.1747 362.3104,-45.1789"/>
</g>
</g>
</svg>
