<?xml version="1.0" encoding="UTF-8" standalone="no"?>
<!DOCTYPE svg PUBLIC "-//W3C//DTD SVG 1.1//EN"
 "http://www.w3.org/Graphics/SVG/1.1/DTD/svg11.dtd">
<!-- Generated by graphviz version 2.40.1 (20161225.0304)
 -->
<!-- Title: %3 Pages: 1 -->
<svg width="1554pt" height="533pt"
 viewBox="0.00 0.00 1553.82 532.56" xmlns="http://www.w3.org/2000/svg" xmlns:xlink="http://www.w3.org/1999/xlink">
<g id="graph0" class="graph" transform="scale(1 1) rotate(0) translate(4 528.5561)">
<title>%3</title>
<polygon fill="#ffffff" stroke="transparent" points="-4,4 -4,-528.5561 1549.8165,-528.5561 1549.8165,4 -4,4"/>
<!-- host -->
<g id="node1" class="node">
<title>host</title>
<ellipse fill="none" stroke="#000000" cx="90.9919" cy="-396.6861" rx="38.7821" ry="26.7407"/>
<text text-anchor="middle" x="90.9919" y="-400.4861" font-family="Times,serif" font-size="14.00" fill="#000000">host:</text>
<text text-anchor="middle" x="90.9919" y="-385.4861" font-family="Times,serif" font-size="14.00" fill="#000000">Python</text>
</g>
<!-- script -->
<g id="node2" class="node">
<title>script</title>
<ellipse fill="none" stroke="#000000" cx="462.9839" cy="-497.6861" rx="94.0904" ry="26.7407"/>
<text text-anchor="middle" x="462.9839" y="-501.4861" font-family="Times,serif" font-size="14.00" fill="#000000">metaL script</text>
<text text-anchor="middle" x="462.9839" y="-486.4861" font-family="Times,serif" font-size="14.00" fill="#000000">(REPL/CLI, git files)</text>
</g>
<!-- host&#45;&gt;script -->
<g id="edge1" class="edge">
<title>host&#45;&gt;script</title>
<path fill="none" stroke="#000000" d="M125.0266,-410.27C146.3592,-418.5106 174.5417,-428.9021 199.9839,-436.6861 257.5508,-454.2986 323.5543,-469.5928 375.0386,-480.4617"/>
<polygon fill="#000000" stroke="#000000" points="374.63,-483.9519 385.1351,-482.5758 376.0647,-477.1005 374.63,-483.9519"/>
<text text-anchor="middle" x="231.4839" y="-471.4861" font-family="Times,serif" font-size="14.00" fill="#000000">optional:</text>
<text text-anchor="middle" x="231.4839" y="-456.4861" font-family="Times,serif" font-size="14.00" fill="#000000">PLY parser</text>
</g>
<!-- metaL -->
<g id="node3" class="node">
<title>metaL</title>
<ellipse fill="none" stroke="#000000" cx="848.2925" cy="-305.6861" rx="110.1176" ry="48.1667"/>
<text text-anchor="middle" x="848.2925" y="-324.4861" font-family="Times,serif" font-size="14.00" fill="#000000">metaL models</text>
<text text-anchor="middle" x="848.2925" y="-309.4861" font-family="Times,serif" font-size="14.00" fill="#000000">interpretable object graph</text>
<text text-anchor="middle" x="848.2925" y="-294.4861" font-family="Times,serif" font-size="14.00" fill="#000000">knowledge base</text>
<text text-anchor="middle" x="848.2925" y="-279.4861" font-family="Times,serif" font-size="14.00" fill="#000000">transformations in metaL</text>
</g>
<!-- host&#45;&gt;metaL -->
<g id="edge2" class="edge">
<title>host&#45;&gt;metaL</title>
<path fill="none" stroke="#ff0000" d="M128.7342,-403.4365C228.3846,-419.7049 505.6026,-454.8415 719.9839,-385.6861 742.8279,-378.317 765.7223,-366.006 785.7167,-353.2234"/>
<polygon fill="#ff0000" stroke="#ff0000" points="787.6543,-356.1383 794.0996,-347.7294 783.8172,-350.2836 787.6543,-356.1383"/>
<text text-anchor="middle" x="462.9839" y="-445.4861" font-family="Times,serif" font-size="14.00" fill="#000000">direct structure construction</text>
<text text-anchor="middle" x="462.9839" y="-430.4861" font-family="Times,serif" font-size="14.00" fill="#000000">metaL&#45;in&#45;Python</text>
</g>
<!-- script&#45;&gt;metaL -->
<g id="edge3" class="edge">
<title>script&#45;&gt;metaL</title>
<path fill="none" stroke="#000000" d="M557.0749,-497.7546C611.1826,-492.8532 676.781,-477.7647 719.9839,-436.6861 738.9296,-418.6718 722.3224,-401.6187 737.9839,-380.6861 746.7761,-368.9347 757.9754,-358.4053 769.8512,-349.2129"/>
<polygon fill="#000000" stroke="#000000" points="772.2037,-351.8262 778.1597,-343.064 768.0395,-346.1995 772.2037,-351.8262"/>
<text text-anchor="middle" x="691.4839" y="-489.4861" font-family="Times,serif" font-size="14.00" fill="#000000">AST</text>
<text text-anchor="middle" x="691.4839" y="-474.4861" font-family="Times,serif" font-size="14.00" fill="#000000">evaluation</text>
</g>
<!-- metaL&#45;&gt;host -->
<g id="edge8" class="edge">
<title>metaL&#45;&gt;host</title>
<path fill="none" stroke="#006400" d="M736.1586,-325.7419C706.5643,-330.6776 674.6169,-335.6878 644.9839,-339.6861 458.9281,-364.7895 236.3972,-384.6042 139.7644,-392.7108"/>
<polygon fill="#006400" stroke="#006400" points="736.8159,-329.1806 746.098,-324.0725 735.6563,-322.2773 736.8159,-329.1806"/>
<polygon fill="#006400" stroke="#006400" points="139.3847,-389.2302 129.7106,-393.55 139.9671,-396.2059 139.3847,-389.2302"/>
<text text-anchor="middle" x="462.9839" y="-383.4861" font-family="Times,serif" font-size="14.00" fill="#000000">graph transformations in Python</text>
</g>
<!-- metaL&#45;&gt;host -->
<g id="edge12" class="edge">
<title>metaL&#45;&gt;host</title>
<path fill="none" stroke="#0000ff" d="M742.4416,-291.8517C627.3078,-279.9874 438.6175,-269.8828 280.9839,-305.6861 224.5974,-318.4931 165.3929,-350.1896 128.3574,-372.5592"/>
<polygon fill="#0000ff" stroke="#0000ff" points="126.1314,-369.8184 119.4345,-378.0282 129.7894,-375.7866 126.1314,-369.8184"/>
<text text-anchor="middle" x="462.9839" y="-324.4861" font-family="Times,serif" font-size="14.00" fill="#000000">metaL model can describe metaL implementation</text>
<text text-anchor="middle" x="462.9839" y="-309.4861" font-family="Times,serif" font-size="14.00" fill="#000000">self&#45;bootstrapping</text>
</g>
<!-- target -->
<g id="node4" class="node">
<title>target</title>
<ellipse fill="none" stroke="#000000" cx="1168.4332" cy="-366.6861" rx="57.0522" ry="26.7407"/>
<text text-anchor="middle" x="1168.4332" y="-370.4861" font-family="Times,serif" font-size="14.00" fill="#000000">target:</text>
<text text-anchor="middle" x="1168.4332" y="-355.4861" font-family="Times,serif" font-size="14.00" fill="#000000">C++,Java,..</text>
</g>
<!-- metaL&#45;&gt;target -->
<g id="edge4" class="edge">
<title>metaL&#45;&gt;target</title>
<path fill="none" stroke="#0000ff" d="M949.587,-324.9868C1000.5714,-334.7015 1060.794,-346.1764 1105.1456,-354.6272"/>
<polygon fill="#0000ff" stroke="#0000ff" points="1104.7307,-358.111 1115.2091,-356.5447 1106.0409,-351.2347 1104.7307,-358.111"/>
<text text-anchor="middle" x="1027.1012" y="-366.4861" font-family="Times,serif" font-size="14.00" fill="#000000">model</text>
<text text-anchor="middle" x="1027.1012" y="-351.4861" font-family="Times,serif" font-size="14.00" fill="#000000">compiler</text>
</g>
<!-- transformation -->
<g id="node6" class="node">
<title>transformation</title>
<ellipse fill="none" stroke="#006400" cx="848.2925" cy="-437.6861" rx="90.5193" ry="48.1667"/>
<text text-anchor="middle" x="848.2925" y="-456.4861" font-family="Times,serif" font-size="14.00" fill="#000000">transformation</text>
<text text-anchor="middle" x="848.2925" y="-441.4861" font-family="Times,serif" font-size="14.00" fill="#000000">knowlege graph is</text>
<text text-anchor="middle" x="848.2925" y="-426.4861" font-family="Times,serif" font-size="14.00" fill="#000000">able to modify itself</text>
<text text-anchor="middle" x="848.2925" y="-411.4861" font-family="Times,serif" font-size="14.00" fill="#000000"> via interpretation</text>
</g>
<!-- metaL&#45;&gt;transformation -->
<g id="edge6" class="edge">
<title>metaL&#45;&gt;transformation</title>
<path fill="none" stroke="#006400" d="M916.2996,-343.8423C934.7824,-361.3177 935.8648,-378.7931 919.5468,-396.2686"/>
<polygon fill="#006400" stroke="#006400" points="917.0271,-393.8333 912.1287,-403.2278 921.8164,-398.9385 917.0271,-393.8333"/>
<text text-anchor="middle" x="971.1372" y="-409.9991" font-family="Times,serif" font-size="14.00" fill="#000000">functions</text>
<text text-anchor="middle" x="971.1372" y="-394.9991" font-family="Times,serif" font-size="14.00" fill="#000000">methods</text>
<text text-anchor="middle" x="971.1372" y="-379.9991" font-family="Times,serif" font-size="14.00" fill="#000000">transformation</text>
<text text-anchor="middle" x="971.1372" y="-364.9991" font-family="Times,serif" font-size="14.00" fill="#000000">descriptions</text>
</g>
<!-- php -->
<g id="node7" class="node">
<title>php</title>
<ellipse fill="none" stroke="#000000" cx="90.9919" cy="-191.6861" rx="51.9908" ry="18"/>
<text text-anchor="middle" x="90.9919" y="-187.9861" font-family="Times,serif" font-size="14.00" fill="#000000">PHP legacy</text>
</g>
<!-- metaL&#45;&gt;php -->
<g id="edge11" class="edge">
<title>metaL&#45;&gt;php</title>
<path fill="none" stroke="#000000" d="M786.1523,-265.8101C770.1177,-254.8828 753.12,-242.72 737.9839,-230.6861 693.9168,-195.6507 697.4068,-165.2096 644.9839,-144.6861 466.8437,-74.9445 232.4846,-141.3604 135.7278,-174.9108"/>
<polygon fill="#000000" stroke="#000000" points="134.525,-171.6236 126.2536,-178.2443 136.8485,-178.2267 134.525,-171.6236"/>
<text text-anchor="middle" x="462.9839" y="-193.4861" font-family="Times,serif" font-size="14.00" fill="#000000">model element/part</text>
<text text-anchor="middle" x="462.9839" y="-178.4861" font-family="Times,serif" font-size="14.00" fill="#000000">can be translated to source code</text>
<text text-anchor="middle" x="462.9839" y="-163.4861" font-family="Times,serif" font-size="14.00" fill="#000000">in any other programming language</text>
<text text-anchor="middle" x="462.9839" y="-148.4861" font-family="Times,serif" font-size="14.00" fill="#000000">(including metaL porting itself)</text>
</g>
<!-- storage -->
<g id="node9" class="node">
<title>storage</title>
<ellipse fill="none" stroke="#000000" cx="848.2925" cy="-184.6861" rx="86.9483" ry="37.4533"/>
<text text-anchor="middle" x="848.2925" y="-195.9861" font-family="Times,serif" font-size="14.00" fill="#000000">persistent</text>
<text text-anchor="middle" x="848.2925" y="-180.9861" font-family="Times,serif" font-size="14.00" fill="#000000">storage</text>
<text text-anchor="middle" x="848.2925" y="-165.9861" font-family="Times,serif" font-size="14.00" fill="#000000">(Redis, RDBMS,..)</text>
</g>
<!-- metaL&#45;&gt;storage -->
<g id="edge13" class="edge">
<title>metaL&#45;&gt;storage</title>
<path fill="none" stroke="#000000" d="M848.2925,-257.3855C848.2925,-249.1781 848.2925,-240.6582 848.2925,-232.4643"/>
<polygon fill="#000000" stroke="#000000" points="851.7926,-232.3079 848.2925,-222.3079 844.7926,-232.308 851.7926,-232.3079"/>
<text text-anchor="middle" x="837.7925" y="-236.1828" font-family="Times,serif" font-size="14.00" fill="#000000">sync &#160;&#160;&#160;</text>
</g>
<!-- other -->
<g id="node10" class="node">
<title>other</title>
<ellipse fill="none" stroke="#000000" cx="1168.4332" cy="-199.6861" rx="72.6644" ry="26.7407"/>
<text text-anchor="middle" x="1168.4332" y="-203.4861" font-family="Times,serif" font-size="14.00" fill="#000000">other metaL</text>
<text text-anchor="middle" x="1168.4332" y="-188.4861" font-family="Times,serif" font-size="14.00" fill="#000000">system instance</text>
</g>
<!-- metaL&#45;&gt;other -->
<g id="edge15" class="edge">
<title>metaL&#45;&gt;other</title>
<path fill="none" stroke="#000000" d="M935.1268,-267.3018C948.886,-261.7545 963.047,-256.3519 976.6012,-251.6861 1015.8186,-238.1859 1060.4993,-225.8994 1096.8672,-216.663"/>
<polygon fill="#000000" stroke="#000000" points="933.6139,-264.1389 925.6779,-271.1582 936.259,-270.62 933.6139,-264.1389"/>
<polygon fill="#000000" stroke="#000000" points="1098.0493,-219.9748 1106.8929,-214.1403 1096.3411,-213.1864 1098.0493,-219.9748"/>
<text text-anchor="middle" x="1027.1012" y="-270.4861" font-family="Times,serif" font-size="14.00" fill="#000000">distributed</text>
<text text-anchor="middle" x="1027.1012" y="-255.4861" font-family="Times,serif" font-size="14.00" fill="#000000">message passing</text>
</g>
<!-- sim -->
<g id="node11" class="node">
<title>sim</title>
<ellipse fill="none" stroke="#000000" cx="1168.4332" cy="-292.6861" rx="62.4516" ry="26.7407"/>
<text text-anchor="middle" x="1168.4332" y="-296.4861" font-family="Times,serif" font-size="14.00" fill="#000000">simulation</text>
<text text-anchor="middle" x="1168.4332" y="-281.4861" font-family="Times,serif" font-size="14.00" fill="#000000">model debug</text>
</g>
<!-- metaL&#45;&gt;sim -->
<g id="edge18" class="edge">
<title>metaL&#45;&gt;sim</title>
<path fill="none" stroke="#000000" d="M958.353,-309.7678C996.1969,-310.2155 1038.7997,-309.6588 1077.6012,-306.6861 1085.0125,-306.1182 1092.7345,-305.2935 1100.4085,-304.3241"/>
<polygon fill="#000000" stroke="#000000" points="1100.9944,-307.7769 1110.439,-302.9758 1100.0619,-300.8393 1100.9944,-307.7769"/>
<text text-anchor="middle" x="1027.1012" y="-313.4861" font-family="Times,serif" font-size="14.00" fill="#000000">model interpreter</text>
</g>
<!-- production -->
<g id="node5" class="node">
<title>production</title>
<ellipse fill="none" stroke="#000000" cx="1488.5408" cy="-418.6861" rx="57.0522" ry="48.1667"/>
<text text-anchor="middle" x="1488.5408" y="-437.4861" font-family="Times,serif" font-size="14.00" fill="#000000">production</text>
<text text-anchor="middle" x="1488.5408" y="-422.4861" font-family="Times,serif" font-size="14.00" fill="#000000">deployment</text>
<text text-anchor="middle" x="1488.5408" y="-407.4861" font-family="Times,serif" font-size="14.00" fill="#000000">distribution</text>
<text text-anchor="middle" x="1488.5408" y="-392.4861" font-family="Times,serif" font-size="14.00" fill="#000000">packaging</text>
</g>
<!-- target&#45;&gt;production -->
<g id="edge5" class="edge">
<title>target&#45;&gt;production</title>
<path fill="none" stroke="#000000" d="M1222.7351,-375.5071C1277.7896,-384.4505 1363.0601,-398.3023 1422.1105,-407.8948"/>
<polygon fill="#000000" stroke="#000000" points="1421.6529,-411.3662 1432.0847,-409.515 1422.7754,-404.4568 1421.6529,-411.3662"/>
<text text-anchor="middle" x="1336.2652" y="-424.4861" font-family="Times,serif" font-size="14.00" fill="#000000">backend compiler</text>
<text text-anchor="middle" x="1336.2652" y="-409.4861" font-family="Times,serif" font-size="14.00" fill="#000000">GCC/TCC, javac,..</text>
</g>
<!-- team -->
<g id="node12" class="node">
<title>team</title>
<ellipse fill="none" stroke="#000000" cx="1488.5408" cy="-314.6861" rx="50.8235" ry="37.4533"/>
<text text-anchor="middle" x="1488.5408" y="-325.9861" font-family="Times,serif" font-size="14.00" fill="#000000">your team</text>
<text text-anchor="middle" x="1488.5408" y="-310.9861" font-family="Times,serif" font-size="14.00" fill="#000000">empoyer</text>
<text text-anchor="middle" x="1488.5408" y="-295.9861" font-family="Times,serif" font-size="14.00" fill="#000000">comunity</text>
</g>
<!-- target&#45;&gt;team -->
<g id="edge20" class="edge">
<title>target&#45;&gt;team</title>
<path fill="none" stroke="#000000" d="M1222.7351,-357.865C1279.8974,-348.5792 1369.6336,-334.002 1428.7743,-324.3949"/>
<polygon fill="#000000" stroke="#000000" points="1429.4095,-327.8376 1438.7189,-322.7794 1428.2871,-320.9282 1429.4095,-327.8376"/>
<text text-anchor="middle" x="1336.2652" y="-354.4861" font-family="Times,serif" font-size="14.00" fill="#000000">share generated source code</text>
</g>
<!-- transformation&#45;&gt;metaL -->
<g id="edge7" class="edge">
<title>transformation&#45;&gt;metaL</title>
<path fill="none" stroke="#006400" d="M784.4563,-403.2278C763.7041,-385.907 760.0456,-368.5863 773.4809,-351.2655"/>
<polygon fill="#006400" stroke="#006400" points="776.1082,-353.5789 780.2854,-343.8423 770.9481,-348.8489 776.1082,-353.5789"/>
<text text-anchor="middle" x="812.9893" y="-372.7347" font-family="Times,serif" font-size="14.00" fill="#000000">self&#45;modification</text>
<text text-anchor="middle" x="812.9893" y="-357.7347" font-family="Times,serif" font-size="14.00" fill="#000000">and inference</text>
</g>
<!-- php&#45;&gt;metaL -->
<g id="edge9" class="edge">
<title>php&#45;&gt;metaL</title>
<path fill="none" stroke="#000000" d="M141.4686,-196.1637C268.7659,-207.5318 596.229,-237.2742 644.9839,-246.6861 679.9632,-253.4386 717.6013,-263.5363 750.8699,-273.4778"/>
<polygon fill="#000000" stroke="#000000" points="750.0025,-276.872 760.5875,-276.4139 752.0272,-270.1711 750.0025,-276.872"/>
<text text-anchor="middle" x="462.9839" y="-265.4861" font-family="Times,serif" font-size="14.00" fill="#000000">metaL core can be implemented</text>
<text text-anchor="middle" x="462.9839" y="-250.4861" font-family="Times,serif" font-size="14.00" fill="#000000">in any host language</text>
</g>
<!-- legacy -->
<g id="node8" class="node">
<title>legacy</title>
<ellipse fill="none" stroke="#000000" cx="90.9919" cy="-47.6861" rx="90.9839" ry="18"/>
<text text-anchor="middle" x="90.9919" y="-43.9861" font-family="Times,serif" font-size="14.00" fill="#000000">existing legacy system</text>
</g>
<!-- legacy&#45;&gt;metaL -->
<g id="edge10" class="edge">
<title>legacy&#45;&gt;metaL</title>
<path fill="none" stroke="#000000" d="M154.6001,-30.6204C262.1382,-5.3941 483.885,30.7405 644.9839,-49.6861 694.3719,-74.3424 696.8616,-98.5615 719.9839,-148.6861 735.6131,-182.5671 717.0737,-199.7836 737.9839,-230.6861 746.156,-242.7634 756.9818,-253.437 768.6614,-262.6667"/>
<polygon fill="#000000" stroke="#000000" points="153.4668,-27.2927 144.5556,-33.0233 155.0955,-34.1006 153.4668,-27.2927"/>
<polygon fill="#000000" stroke="#000000" points="766.7636,-265.6186 776.8615,-268.8254 770.9674,-260.0214 766.7636,-265.6186"/>
<text text-anchor="middle" x="462.9839" y="-98.4861" font-family="Times,serif" font-size="14.00" fill="#000000">any legacy code can be parsed and imported into model space</text>
<text text-anchor="middle" x="462.9839" y="-83.4861" font-family="Times,serif" font-size="14.00" fill="#000000">for analisys, legacy raking, refactoring and redesign</text>
<text text-anchor="middle" x="462.9839" y="-68.4861" font-family="Times,serif" font-size="14.00" fill="#000000">metaL&#45;generated code refreshes legacy by hands (using meld tool)</text>
<text text-anchor="middle" x="462.9839" y="-53.4861" font-family="Times,serif" font-size="14.00" fill="#000000">(consistency provided by model relations and tests)</text>
</g>
<!-- storage&#45;&gt;metaL -->
<g id="edge14" class="edge">
<title>storage&#45;&gt;metaL</title>
<path fill="none" stroke="#000000" d="M850.8213,-222.3512C851.014,-226.2752 851.1779,-230.2056 851.2925,-233.9761 851.4224,-238.2496 851.4637,-242.6658 851.4376,-247.1097"/>
<polygon fill="#000000" stroke="#000000" points="847.9321,-247.4178 851.2648,-257.4748 854.9311,-247.5346 847.9321,-247.4178"/>
<text text-anchor="middle" x="875.9139" y="-243.4574" font-family="Times,serif" font-size="14.00" fill="#000000"> &#160;recover</text>
<text text-anchor="middle" x="875.9139" y="-228.4574" font-family="Times,serif" font-size="14.00" fill="#000000">update</text>
</g>
<!-- storage&#45;&gt;other -->
<g id="edge16" class="edge">
<title>storage&#45;&gt;other</title>
<path fill="none" stroke="#000000" d="M934.9272,-188.7453C981.9386,-190.948 1039.7395,-193.6562 1086.0717,-195.8271"/>
<polygon fill="#000000" stroke="#000000" points="1085.9237,-199.3239 1096.0766,-196.2958 1086.2514,-192.3315 1085.9237,-199.3239"/>
<text text-anchor="middle" x="1027.1012" y="-198.4861" font-family="Times,serif" font-size="14.00" fill="#000000">async update</text>
</g>
<!-- other&#45;&gt;storage -->
<g id="edge17" class="edge">
<title>other&#45;&gt;storage</title>
<path fill="none" stroke="#000000" d="M1116.2198,-180.6809C1103.733,-176.9516 1090.3289,-173.6033 1077.6012,-171.6861 1032.611,-164.909 982.1717,-166.7558 940.0786,-170.8852"/>
<polygon fill="#000000" stroke="#000000" points="939.7079,-167.4048 930.123,-171.9191 940.431,-174.3674 939.7079,-167.4048"/>
<text text-anchor="middle" x="1027.1012" y="-175.4861" font-family="Times,serif" font-size="14.00" fill="#000000">distributed via DB</text>
</g>
<!-- sim&#45;&gt;metaL -->
<g id="edge19" class="edge">
<title>sim&#45;&gt;metaL</title>
<path fill="none" stroke="#000000" d="M1106.3988,-288.8155C1096.7614,-288.3459 1086.9157,-287.9422 1077.6012,-287.6861 1032.7292,-286.452 1021.3811,-284.5603 976.6012,-287.6861 972.0607,-288.003 967.4364,-288.3823 962.7699,-288.8121"/>
<polygon fill="#000000" stroke="#000000" points="962.109,-285.3603 952.5028,-289.8291 962.7991,-292.3262 962.109,-285.3603"/>
<text text-anchor="middle" x="1027.1012" y="-291.4861" font-family="Times,serif" font-size="14.00" fill="#000000">tracing</text>
</g>
</g>
</svg>
