<?xml version="1.0" encoding="UTF-8" standalone="no"?>
<!DOCTYPE svg PUBLIC "-//W3C//DTD SVG 1.1//EN"
 "http://www.w3.org/Graphics/SVG/1.1/DTD/svg11.dtd">
<!-- Generated by graphviz version 2.40.1 (20161225.0304)
 -->
<!-- Title: %3 Pages: 1 -->
<svg width="1560pt" height="509pt"
 viewBox="0.00 0.00 1559.92 508.83" xmlns="http://www.w3.org/2000/svg" xmlns:xlink="http://www.w3.org/1999/xlink">
<g id="graph0" class="graph" transform="scale(1 1) rotate(0) translate(4 504.8255)">
<title>%3</title>
<polygon fill="#ffffff" stroke="transparent" points="-4,4 -4,-504.8255 1555.923,-504.8255 1555.923,4 -4,4"/>
<!-- host -->
<g id="node1" class="node">
<title>host</title>
<ellipse fill="none" stroke="#000000" cx="94.0452" cy="-365.9554" rx="38.7821" ry="26.7407"/>
<text text-anchor="middle" x="94.0452" y="-369.7554" font-family="Times,serif" font-size="14.00" fill="#000000">host:</text>
<text text-anchor="middle" x="94.0452" y="-354.7554" font-family="Times,serif" font-size="14.00" fill="#000000">Python</text>
</g>
<!-- script -->
<g id="node2" class="node">
<title>script</title>
<ellipse fill="none" stroke="#000000" cx="469.0904" cy="-473.9554" rx="96.7474" ry="26.7407"/>
<text text-anchor="middle" x="469.0904" y="-477.7554" font-family="Times,serif" font-size="14.00" fill="#000000">metaL script</text>
<text text-anchor="middle" x="469.0904" y="-462.7554" font-family="Times,serif" font-size="14.00" fill="#000000">(REPL/CLI, .ini files)</text>
</g>
<!-- host&#45;&gt;script -->
<g id="edge1" class="edge">
<title>host&#45;&gt;script</title>
<path fill="none" stroke="#000000" d="M126.3841,-381.0946C148.495,-391.053 178.6548,-403.8749 206.0904,-412.9554 262.1994,-431.5261 326.8413,-446.6018 377.9976,-457.1201"/>
<polygon fill="#000000" stroke="#000000" points="377.5456,-460.5997 388.0425,-459.1626 378.9405,-453.7401 377.5456,-460.5997"/>
<text text-anchor="middle" x="237.5904" y="-447.7554" font-family="Times,serif" font-size="14.00" fill="#000000">optional:</text>
<text text-anchor="middle" x="237.5904" y="-432.7554" font-family="Times,serif" font-size="14.00" fill="#000000">PLY parser</text>
</g>
<!-- metaL -->
<g id="node3" class="node">
<title>metaL</title>
<ellipse fill="none" stroke="#000000" cx="854.3991" cy="-266.9554" rx="110.1176" ry="48.1667"/>
<text text-anchor="middle" x="854.3991" y="-285.7554" font-family="Times,serif" font-size="14.00" fill="#000000">metaL models</text>
<text text-anchor="middle" x="854.3991" y="-270.7554" font-family="Times,serif" font-size="14.00" fill="#000000">interpretable object graph</text>
<text text-anchor="middle" x="854.3991" y="-255.7554" font-family="Times,serif" font-size="14.00" fill="#000000">knowledge base</text>
<text text-anchor="middle" x="854.3991" y="-240.7554" font-family="Times,serif" font-size="14.00" fill="#000000">transformations in metaL</text>
</g>
<!-- host&#45;&gt;metaL -->
<g id="edge2" class="edge">
<title>host&#45;&gt;metaL</title>
<path fill="none" stroke="#ff0000" d="M132.7643,-369.5148C223.7096,-377.1166 457.8729,-392.2753 651.0904,-366.9554 685.2961,-362.473 694.4385,-360.677 726.0904,-346.9554 747.1757,-337.8146 768.8449,-325.57 788.2328,-313.4134"/>
<polygon fill="#ff0000" stroke="#ff0000" points="790.1266,-316.3569 796.6808,-308.0327 786.3661,-310.4528 790.1266,-316.3569"/>
<text text-anchor="middle" x="469.0904" y="-399.7554" font-family="Times,serif" font-size="14.00" fill="#000000">direct object graph construction</text>
<text text-anchor="middle" x="469.0904" y="-384.7554" font-family="Times,serif" font-size="14.00" fill="#000000">metaL&#45;in&#45;Python</text>
</g>
<!-- script&#45;&gt;metaL -->
<g id="edge3" class="edge">
<title>script&#45;&gt;metaL</title>
<path fill="none" stroke="#000000" d="M566.0218,-474.8316C620.0888,-470.0845 684.68,-454.8789 726.0904,-412.9554 748.9673,-389.7951 725.4151,-368.6197 744.0904,-341.9554 752.5099,-329.9342 763.521,-319.2685 775.3247,-310.0239"/>
<polygon fill="#000000" stroke="#000000" points="777.6771,-312.6357 783.6009,-303.8517 773.4923,-307.0243 777.6771,-312.6357"/>
<text text-anchor="middle" x="697.5904" y="-466.7554" font-family="Times,serif" font-size="14.00" fill="#000000">AST</text>
<text text-anchor="middle" x="697.5904" y="-451.7554" font-family="Times,serif" font-size="14.00" fill="#000000">evaluation</text>
</g>
<!-- metaL&#45;&gt;host -->
<g id="edge8" class="edge">
<title>metaL&#45;&gt;host</title>
<path fill="none" stroke="#006400" d="M742.5431,-287.271C712.8816,-292.2168 680.832,-297.1671 651.0904,-300.9554 489.9903,-321.4756 448.1532,-312.1446 287.0904,-332.9554 237.2537,-339.3948 180.6192,-349.3977 141.6462,-356.7035"/>
<polygon fill="#006400" stroke="#006400" points="743.223,-290.7059 752.5038,-285.5955 742.0618,-283.8028 743.223,-290.7059"/>
<polygon fill="#006400" stroke="#006400" points="140.8157,-353.2983 131.6387,-358.5929 142.1145,-360.1768 140.8157,-353.2983"/>
<text text-anchor="middle" x="469.0904" y="-351.7554" font-family="Times,serif" font-size="14.00" fill="#000000">graph transformations</text>
<text text-anchor="middle" x="469.0904" y="-336.7554" font-family="Times,serif" font-size="14.00" fill="#000000">written in Python</text>
</g>
<!-- metaL&#45;&gt;host -->
<g id="edge12" class="edge">
<title>metaL&#45;&gt;host</title>
<path fill="none" stroke="#0000ff" d="M744.8149,-260.8657C604.8713,-254.1442 370.8027,-246.7417 287.0904,-266.9554 228.2819,-281.1557 167.2736,-316.5101 129.9772,-340.8828"/>
<polygon fill="#0000ff" stroke="#0000ff" points="127.8795,-338.0742 121.4778,-346.5163 131.7468,-343.9089 127.8795,-338.0742"/>
<text text-anchor="middle" x="469.0904" y="-285.7554" font-family="Times,serif" font-size="14.00" fill="#000000">metaL model can describe self&#45;implementation</text>
<text text-anchor="middle" x="469.0904" y="-270.7554" font-family="Times,serif" font-size="14.00" fill="#000000">bootstrapping</text>
</g>
<!-- target -->
<g id="node4" class="node">
<title>target</title>
<ellipse fill="none" stroke="#000000" cx="1174.5397" cy="-327.9554" rx="57.0522" ry="26.7407"/>
<text text-anchor="middle" x="1174.5397" y="-331.7554" font-family="Times,serif" font-size="14.00" fill="#000000">target:</text>
<text text-anchor="middle" x="1174.5397" y="-316.7554" font-family="Times,serif" font-size="14.00" fill="#000000">C++,Java,..</text>
</g>
<!-- metaL&#45;&gt;target -->
<g id="edge4" class="edge">
<title>metaL&#45;&gt;target</title>
<path fill="none" stroke="#0000ff" d="M955.6936,-286.2562C1006.6779,-295.9708 1066.9006,-307.4457 1111.2521,-315.8965"/>
<polygon fill="#0000ff" stroke="#0000ff" points="1110.8372,-319.3804 1121.3156,-317.814 1112.1475,-312.5041 1110.8372,-319.3804"/>
<text text-anchor="middle" x="1033.2077" y="-327.7554" font-family="Times,serif" font-size="14.00" fill="#000000">model</text>
<text text-anchor="middle" x="1033.2077" y="-312.7554" font-family="Times,serif" font-size="14.00" fill="#000000">compiler</text>
</g>
<!-- transformation -->
<g id="node6" class="node">
<title>transformation</title>
<ellipse fill="none" stroke="#006400" cx="854.3991" cy="-398.9554" rx="90.5193" ry="48.1667"/>
<text text-anchor="middle" x="854.3991" y="-417.7554" font-family="Times,serif" font-size="14.00" fill="#000000">transformation</text>
<text text-anchor="middle" x="854.3991" y="-402.7554" font-family="Times,serif" font-size="14.00" fill="#000000">knowlege graph is</text>
<text text-anchor="middle" x="854.3991" y="-387.7554" font-family="Times,serif" font-size="14.00" fill="#000000">able to modify itself</text>
<text text-anchor="middle" x="854.3991" y="-372.7554" font-family="Times,serif" font-size="14.00" fill="#000000"> via interpretation</text>
</g>
<!-- metaL&#45;&gt;transformation -->
<g id="edge6" class="edge">
<title>metaL&#45;&gt;transformation</title>
<path fill="none" stroke="#006400" d="M922.4061,-305.1117C940.889,-322.5871 941.9714,-340.0625 925.6534,-357.5379"/>
<polygon fill="#006400" stroke="#006400" points="923.1336,-355.1027 918.2352,-364.4972 927.923,-360.2078 923.1336,-355.1027"/>
<text text-anchor="middle" x="977.2437" y="-371.2685" font-family="Times,serif" font-size="14.00" fill="#000000">functions</text>
<text text-anchor="middle" x="977.2437" y="-356.2685" font-family="Times,serif" font-size="14.00" fill="#000000">methods</text>
<text text-anchor="middle" x="977.2437" y="-341.2685" font-family="Times,serif" font-size="14.00" fill="#000000">transformation</text>
<text text-anchor="middle" x="977.2437" y="-326.2685" font-family="Times,serif" font-size="14.00" fill="#000000">descriptions</text>
</g>
<!-- php -->
<g id="node7" class="node">
<title>php</title>
<ellipse fill="none" stroke="#000000" cx="94.0452" cy="-167.9554" rx="94.0904" ry="26.7407"/>
<text text-anchor="middle" x="94.0452" y="-171.7554" font-family="Times,serif" font-size="14.00" fill="#000000">PHP (legacy)</text>
<text text-anchor="middle" x="94.0452" y="-156.7554" font-family="Times,serif" font-size="14.00" fill="#000000">Clojure (JVM world)</text>
</g>
<!-- metaL&#45;&gt;php -->
<g id="edge11" class="edge">
<title>metaL&#45;&gt;php</title>
<path fill="none" stroke="#0000ff" d="M792.9452,-226.8167C738.9658,-191.9542 666.6648,-146.3602 651.0904,-141.9554 487.3492,-95.6454 285.8668,-125.1819 175.6524,-148.2462"/>
<polygon fill="#0000ff" stroke="#0000ff" points="174.6536,-144.8802 165.601,-150.3848 176.1104,-151.727 174.6536,-144.8802"/>
<text text-anchor="middle" x="469.0904" y="-160.7554" font-family="Times,serif" font-size="14.00" fill="#000000">model elements can be translated to source code</text>
<text text-anchor="middle" x="469.0904" y="-145.7554" font-family="Times,serif" font-size="14.00" fill="#000000">(including metaL porting itself)</text>
</g>
<!-- storage -->
<g id="node9" class="node">
<title>storage</title>
<ellipse fill="none" stroke="#000000" cx="854.3991" cy="-145.9554" rx="86.9483" ry="37.4533"/>
<text text-anchor="middle" x="854.3991" y="-157.2554" font-family="Times,serif" font-size="14.00" fill="#000000">persistent</text>
<text text-anchor="middle" x="854.3991" y="-142.2554" font-family="Times,serif" font-size="14.00" fill="#000000">storage</text>
<text text-anchor="middle" x="854.3991" y="-127.2554" font-family="Times,serif" font-size="14.00" fill="#000000">(Redis, RDBMS,..)</text>
</g>
<!-- metaL&#45;&gt;storage -->
<g id="edge13" class="edge">
<title>metaL&#45;&gt;storage</title>
<path fill="none" stroke="#000000" d="M854.3991,-218.6549C854.3991,-210.4475 854.3991,-201.9275 854.3991,-193.7337"/>
<polygon fill="#000000" stroke="#000000" points="857.8992,-193.5773 854.3991,-183.5773 850.8992,-193.5773 857.8992,-193.5773"/>
<text text-anchor="middle" x="843.8991" y="-197.4521" font-family="Times,serif" font-size="14.00" fill="#000000">sync &#160;&#160;&#160;</text>
</g>
<!-- other -->
<g id="node10" class="node">
<title>other</title>
<ellipse fill="none" stroke="#000000" cx="1174.5397" cy="-160.9554" rx="72.6644" ry="26.7407"/>
<text text-anchor="middle" x="1174.5397" y="-164.7554" font-family="Times,serif" font-size="14.00" fill="#000000">other metaL</text>
<text text-anchor="middle" x="1174.5397" y="-149.7554" font-family="Times,serif" font-size="14.00" fill="#000000">system instance</text>
</g>
<!-- metaL&#45;&gt;other -->
<g id="edge15" class="edge">
<title>metaL&#45;&gt;other</title>
<path fill="none" stroke="#000000" d="M941.2334,-228.5712C954.9925,-223.0238 969.1536,-217.6213 982.7077,-212.9554 1021.9251,-199.4552 1066.6058,-187.1687 1102.9737,-177.9324"/>
<polygon fill="#000000" stroke="#000000" points="939.7205,-225.4083 931.7844,-232.4275 942.3656,-231.8893 939.7205,-225.4083"/>
<polygon fill="#000000" stroke="#000000" points="1104.1559,-181.2441 1112.9995,-175.4097 1102.4477,-174.4557 1104.1559,-181.2441"/>
<text text-anchor="middle" x="1033.2077" y="-231.7554" font-family="Times,serif" font-size="14.00" fill="#000000">distributed</text>
<text text-anchor="middle" x="1033.2077" y="-216.7554" font-family="Times,serif" font-size="14.00" fill="#000000">message passing</text>
</g>
<!-- sim -->
<g id="node11" class="node">
<title>sim</title>
<ellipse fill="none" stroke="#000000" cx="1174.5397" cy="-253.9554" rx="62.4516" ry="26.7407"/>
<text text-anchor="middle" x="1174.5397" y="-257.7554" font-family="Times,serif" font-size="14.00" fill="#000000">simulation</text>
<text text-anchor="middle" x="1174.5397" y="-242.7554" font-family="Times,serif" font-size="14.00" fill="#000000">model debug</text>
</g>
<!-- metaL&#45;&gt;sim -->
<g id="edge18" class="edge">
<title>metaL&#45;&gt;sim</title>
<path fill="none" stroke="#000000" d="M964.4596,-271.0372C1002.3035,-271.4848 1044.9063,-270.9281 1083.7077,-267.9554 1091.1191,-267.3876 1098.841,-266.5628 1106.515,-265.5934"/>
<polygon fill="#000000" stroke="#000000" points="1107.101,-269.0462 1116.5456,-264.2452 1106.1684,-262.1086 1107.101,-269.0462"/>
<text text-anchor="middle" x="1033.2077" y="-274.7554" font-family="Times,serif" font-size="14.00" fill="#000000">model interpreter</text>
</g>
<!-- production -->
<g id="node5" class="node">
<title>production</title>
<ellipse fill="none" stroke="#000000" cx="1494.6474" cy="-379.9554" rx="57.0522" ry="48.1667"/>
<text text-anchor="middle" x="1494.6474" y="-398.7554" font-family="Times,serif" font-size="14.00" fill="#000000">production</text>
<text text-anchor="middle" x="1494.6474" y="-383.7554" font-family="Times,serif" font-size="14.00" fill="#000000">deployment</text>
<text text-anchor="middle" x="1494.6474" y="-368.7554" font-family="Times,serif" font-size="14.00" fill="#000000">distribution</text>
<text text-anchor="middle" x="1494.6474" y="-353.7554" font-family="Times,serif" font-size="14.00" fill="#000000">packaging</text>
</g>
<!-- target&#45;&gt;production -->
<g id="edge5" class="edge">
<title>target&#45;&gt;production</title>
<path fill="none" stroke="#000000" d="M1228.8416,-336.7765C1283.8962,-345.7199 1369.1667,-359.5717 1428.2171,-369.1641"/>
<polygon fill="#000000" stroke="#000000" points="1427.7595,-372.6356 1438.1913,-370.7844 1428.8819,-365.7262 1427.7595,-372.6356"/>
<text text-anchor="middle" x="1342.3717" y="-385.7554" font-family="Times,serif" font-size="14.00" fill="#000000">backend compiler</text>
<text text-anchor="middle" x="1342.3717" y="-370.7554" font-family="Times,serif" font-size="14.00" fill="#000000">GCC/TCC, javac,..</text>
</g>
<!-- team -->
<g id="node12" class="node">
<title>team</title>
<ellipse fill="none" stroke="#000000" cx="1494.6474" cy="-275.9554" rx="50.8235" ry="37.4533"/>
<text text-anchor="middle" x="1494.6474" y="-287.2554" font-family="Times,serif" font-size="14.00" fill="#000000">your team</text>
<text text-anchor="middle" x="1494.6474" y="-272.2554" font-family="Times,serif" font-size="14.00" fill="#000000">empoyer</text>
<text text-anchor="middle" x="1494.6474" y="-257.2554" font-family="Times,serif" font-size="14.00" fill="#000000">comunity</text>
</g>
<!-- target&#45;&gt;team -->
<g id="edge20" class="edge">
<title>target&#45;&gt;team</title>
<path fill="none" stroke="#000000" d="M1228.8416,-319.1343C1286.0039,-309.8486 1375.7401,-295.2713 1434.8808,-285.6642"/>
<polygon fill="#000000" stroke="#000000" points="1435.5161,-289.107 1444.8255,-284.0487 1434.3936,-282.1975 1435.5161,-289.107"/>
<text text-anchor="middle" x="1342.3717" y="-315.7554" font-family="Times,serif" font-size="14.00" fill="#000000">share generated source code</text>
</g>
<!-- transformation&#45;&gt;metaL -->
<g id="edge7" class="edge">
<title>transformation&#45;&gt;metaL</title>
<path fill="none" stroke="#006400" d="M790.5629,-364.4972C769.8106,-347.1764 766.1521,-329.8556 779.5874,-312.5348"/>
<polygon fill="#006400" stroke="#006400" points="782.2148,-314.8483 786.392,-305.1117 777.0547,-310.1182 782.2148,-314.8483"/>
<text text-anchor="middle" x="819.0958" y="-334.0041" font-family="Times,serif" font-size="14.00" fill="#000000">self&#45;modification</text>
<text text-anchor="middle" x="819.0958" y="-319.0041" font-family="Times,serif" font-size="14.00" fill="#000000">and inference</text>
</g>
<!-- php&#45;&gt;metaL -->
<g id="edge9" class="edge">
<title>php&#45;&gt;metaL</title>
<path fill="none" stroke="#ff0000" d="M187.7804,-171.1094C298.9659,-175.9446 489.6,-187.6852 651.0904,-214.9554 684.5421,-220.6042 720.5574,-229.0236 752.8454,-237.4506"/>
<polygon fill="#ff0000" stroke="#ff0000" points="752.177,-240.894 762.7392,-240.0631 753.9642,-234.126 752.177,-240.894"/>
<text text-anchor="middle" x="469.0904" y="-233.7554" font-family="Times,serif" font-size="14.00" fill="#000000">metaL core can be implemented</text>
<text text-anchor="middle" x="469.0904" y="-218.7554" font-family="Times,serif" font-size="14.00" fill="#000000">in any host language (dynamic &amp; OOP preferred)</text>
</g>
<!-- legacy -->
<g id="node8" class="node">
<title>legacy</title>
<ellipse fill="none" stroke="#000000" cx="94.0452" cy="-38.9554" rx="90.9839" ry="18"/>
<text text-anchor="middle" x="94.0452" y="-35.2554" font-family="Times,serif" font-size="14.00" fill="#000000">existing legacy system</text>
</g>
<!-- legacy&#45;&gt;metaL -->
<g id="edge10" class="edge">
<title>legacy&#45;&gt;metaL</title>
<path fill="none" stroke="#000000" d="M162.313,-23.1142C271.9195,-1.3813 491.0552,26.5813 651.0904,-52.9554 698.9515,-76.7421 699.2112,-100.7601 726.0904,-146.9554 736.9236,-165.5737 730.5945,-175.1667 744.0904,-191.9554 753.3446,-203.4675 764.8347,-213.8987 776.8722,-223.0731"/>
<polygon fill="#000000" stroke="#000000" points="161.479,-19.7119 152.3731,-25.1279 162.869,-26.5726 161.479,-19.7119"/>
<polygon fill="#000000" stroke="#000000" points="775.1359,-226.1396 785.2726,-229.2216 779.2704,-220.4909 775.1359,-226.1396"/>
<text text-anchor="middle" x="469.0904" y="-101.7554" font-family="Times,serif" font-size="14.00" fill="#000000">any legacy code can be parsed and imported into model space</text>
<text text-anchor="middle" x="469.0904" y="-86.7554" font-family="Times,serif" font-size="14.00" fill="#000000">for analisys, legacy raking, refactoring and redesign</text>
<text text-anchor="middle" x="469.0904" y="-71.7554" font-family="Times,serif" font-size="14.00" fill="#000000">metaL&#45;generated code refreshes legacy by hands (using meld tool)</text>
<text text-anchor="middle" x="469.0904" y="-56.7554" font-family="Times,serif" font-size="14.00" fill="#000000">(consistency provided by model relations and tests)</text>
</g>
<!-- storage&#45;&gt;metaL -->
<g id="edge14" class="edge">
<title>storage&#45;&gt;metaL</title>
<path fill="none" stroke="#000000" d="M856.9278,-183.6205C857.1206,-187.5446 857.2844,-191.475 857.3991,-195.2454 857.529,-199.519 857.5702,-203.9352 857.5441,-208.3791"/>
<polygon fill="#000000" stroke="#000000" points="854.0386,-208.6871 857.3713,-218.7441 861.0376,-208.8039 854.0386,-208.6871"/>
<text text-anchor="middle" x="882.0204" y="-204.7268" font-family="Times,serif" font-size="14.00" fill="#000000"> &#160;recover</text>
<text text-anchor="middle" x="882.0204" y="-189.7268" font-family="Times,serif" font-size="14.00" fill="#000000">update</text>
</g>
<!-- storage&#45;&gt;other -->
<g id="edge16" class="edge">
<title>storage&#45;&gt;other</title>
<path fill="none" stroke="#000000" d="M941.0337,-150.0146C988.0452,-152.2173 1045.846,-154.9255 1092.1782,-157.0964"/>
<polygon fill="#000000" stroke="#000000" points="1092.0302,-160.5932 1102.1831,-157.5652 1092.3579,-153.6009 1092.0302,-160.5932"/>
<text text-anchor="middle" x="1033.2077" y="-159.7554" font-family="Times,serif" font-size="14.00" fill="#000000">async update</text>
</g>
<!-- other&#45;&gt;storage -->
<g id="edge17" class="edge">
<title>other&#45;&gt;storage</title>
<path fill="none" stroke="#000000" d="M1122.3263,-141.9502C1109.8396,-138.2209 1096.4354,-134.8726 1083.7077,-132.9554 1038.7175,-126.1784 988.2783,-128.0252 946.1852,-132.1546"/>
<polygon fill="#000000" stroke="#000000" points="945.8145,-128.6742 936.2295,-133.1885 946.5376,-135.6367 945.8145,-128.6742"/>
<text text-anchor="middle" x="1033.2077" y="-136.7554" font-family="Times,serif" font-size="14.00" fill="#000000">distributed via DB</text>
</g>
<!-- sim&#45;&gt;metaL -->
<g id="edge19" class="edge">
<title>sim&#45;&gt;metaL</title>
<path fill="none" stroke="#000000" d="M1112.5053,-250.0848C1102.868,-249.6153 1093.0223,-249.2116 1083.7077,-248.9554 1038.8358,-247.7213 1027.4877,-245.8297 982.7077,-248.9554 978.1673,-249.2723 973.543,-249.6516 968.8765,-250.0814"/>
<polygon fill="#000000" stroke="#000000" points="968.2156,-246.6297 958.6093,-251.0984 968.9056,-253.5956 968.2156,-246.6297"/>
<text text-anchor="middle" x="1033.2077" y="-252.7554" font-family="Times,serif" font-size="14.00" fill="#000000">tracing</text>
</g>
</g>
</svg>
